<svg preserveAspectRatio="none" width="100%" height="100%" overflow="visible" style="display: block;" viewBox="0 0 40 40" fill="none" xmlns="http://www.w3.org/2000/svg">
<g id="Logo / Vector Group">
<g id="Vector">
</g>
<g id="Group">
<path id="Vector_2" d="M25.5344 12.8369C25.5344 12.3665 25.8977 11.9549 26.3596 11.9499L28.4634 11.9271C29.699 11.9138 30.7005 11.1071 30.8034 9.86069C30.8921 8.7859 30.518 7.80298 29.4959 7.41923C29.12 7.27819 28.7261 7.19757 28.3117 7.19715L24.8769 7.19361C24.8019 7.19361 24.7305 7.35028 24.7305 7.43132L24.7059 18.4674C24.704 19.3067 24.0867 19.9642 23.3213 20.1124C22.8825 20.1971 22.4896 20.1824 22.058 20.1201C21.5044 20.0403 21.0125 19.6874 20.7927 19.1688C20.6615 18.8592 20.6044 18.5384 20.6044 18.1863L20.6077 8.31048L20.6102 5.38132C20.6107 4.98298 20.6542 4.61278 20.824 4.25153C21.1421 3.57528 21.7957 3.07632 22.5759 3.07403L28.4209 3.05715C28.9696 3.05548 29.469 3.14798 29.9955 3.25757C31.2457 3.51798 32.3688 4.11611 33.2834 4.98048C35.5557 7.1284 35.8817 10.6057 34.0646 13.1536C33.2638 14.2767 32.2234 14.8563 32.1655 14.9665C32.145 15.0055 32.1715 15.1149 32.2015 15.1588L34.8109 18.9771C35.0817 19.3734 34.884 19.8944 34.4725 20.0578C34.3288 20.1149 34.1646 20.1692 34.0142 20.1692H31.7923C31.5825 20.1692 31.3675 20.1282 31.1713 20.0807C30.6855 19.9636 30.3305 19.6694 30.0582 19.2594L28.3332 16.6609C27.9659 16.1076 27.3336 15.8576 26.6875 15.8621C26.4013 15.8642 26.1277 15.849 25.8855 15.6936C25.6569 15.5469 25.5334 15.2544 25.5336 14.9717L25.5344 12.8374V12.8369Z" fill="var(--fill-0, white)"/>
<path id="Vector_3" d="M25.0813 32.8471C24.815 32.8466 24.6398 33.0346 24.6396 33.2671L24.6375 35.1535C24.6369 35.6583 24.2758 36.0839 23.7621 36.0835L21.6877 36.0821C21.3613 36.0819 21.029 35.8981 20.8448 35.635C20.701 35.4296 20.6167 35.1589 20.6177 34.891L20.6431 27.9469C20.65 26.0925 21.3888 24.3031 22.5877 22.9146C23.9602 21.325 25.9556 20.4562 28.0577 20.5054C30.3567 20.5591 32.5092 21.7269 33.7923 23.6358C34.6065 24.8473 35.076 26.2766 35.076 27.7504V34.9958C35.076 35.5604 34.6356 36.0758 34.091 36.075L31.7894 36.0719C31.371 36.0712 31.0356 35.626 31.0331 35.225L31.0215 33.3033C31.02 33.0706 30.8529 32.8579 30.6027 32.8575L25.0815 32.8469L25.0813 32.8471ZM30.7542 29.1941C30.8723 29.1625 30.9498 29.0971 30.9506 29.0135L30.9602 27.8598C30.9677 26.9385 30.5792 26.0466 29.89 25.4373C29.2829 24.9004 28.5298 24.6625 27.7306 24.691C26.0723 24.7502 24.7273 26.3412 24.7181 27.8596L24.7115 28.9735C24.7106 29.1056 24.811 29.1952 24.9556 29.1952L30.7546 29.1939L30.7542 29.1941Z" fill="var(--fill-0, white)"/>
<g id="Group_2">
<path id="Vector_4" d="M9.98334 30.1588C9.33625 30.1588 8.92917 30.5755 8.91167 31.2005C8.89667 31.7411 9.2623 32.2444 9.85625 32.2453L19.2029 32.2573C19.695 32.258 20.0523 32.6746 20.0502 33.1267L20.0396 35.2817C20.0373 35.7582 19.6231 36.0957 19.186 36.0942L18.2429 36.0909H9.85459C8.99188 36.0909 8.21084 35.9136 7.45375 35.513C5.82354 34.6505 4.82084 32.9069 4.93938 31.0486C5.00334 30.0461 5.44396 29.1425 6.07979 28.3863C6.13396 28.3219 6.15146 28.2357 6.09688 28.1721C4.92667 26.8075 4.57417 25.1557 5.32834 23.4832C6.10917 21.7515 7.83084 20.6061 9.73855 20.6065L13.0344 20.6071L19.1898 20.6127C19.7363 20.6132 20.161 20.9805 20.1608 21.5357L20.1604 23.5188C20.1604 24.0048 19.78 24.4334 19.2713 24.4342L13.4406 24.4434L9.81563 24.4559C9.26438 24.4577 8.9075 24.9317 8.91688 25.4534C8.92584 25.9446 9.24834 26.3794 9.76771 26.3869L11.2602 26.4082L17.321 26.4148C17.8071 26.4155 18.194 26.8028 18.1938 27.2788L18.1929 29.2875C18.1927 29.8013 17.7877 30.1605 17.2827 30.1605L9.98313 30.1592L9.98334 30.1588Z" fill="var(--fill-0, white)"/>
<path id="Vector_5" d="M13.4957 16.0041C14.5305 15.932 15.4377 15.5028 16.1959 14.8387C16.4567 14.6103 16.7311 14.3951 17.1019 14.4222C17.4494 14.4476 17.7117 14.6601 17.9544 14.8959L19.4005 16.3003C19.83 16.7176 19.8382 17.4462 19.3573 17.8564L18.5971 18.5047C17.0377 19.6837 15.1675 20.2322 13.2167 20.2214C11.5821 20.2122 10.0323 19.7464 8.67129 18.8609C6.40192 17.3847 4.96858 14.9609 4.78775 12.2516C4.75796 11.8047 4.75483 11.4126 4.79129 10.9574C5.1615 6.32699 9.14379 2.78345 13.7852 3.02907C15.9517 3.14386 17.6302 4.01095 19.2119 5.44803C19.4867 5.69782 19.728 5.98532 19.7267 6.3822C19.7259 6.6822 19.5498 6.96595 19.3313 7.16615L17.7486 8.61532C17.5319 8.81365 17.1973 8.90511 16.9213 8.86303C16.5607 8.80803 16.3063 8.59282 16.0534 8.36532C14.4223 6.8997 11.9867 6.85907 10.3411 8.33136C8.64692 9.84678 8.43483 12.6007 9.87796 14.4224C10.7452 15.5172 12.073 16.103 13.4957 16.0039V16.0041Z" fill="var(--fill-0, white)"/>
</g>
</g>
</g>
</svg>
