<svg xmlns="http://www.w3.org/2000/svg">
  <!-- Material Symbols from google/material-design-icons (Apache-2.0). -->
  <g id="material-icon-add"><path d="M440-440H200v-80h240v-240h80v240h240v80H520v240h-80v-240Z" xmlns="http://www.w3.org/2000/svg" /></g>
  <g id="material-icon-add-light"><path d="M454-454H260v-52h194v-194h52v194h194v52H506v194h-52v-194Z" xmlns="http://www.w3.org/2000/svg" /></g>
  <g id="material-icon-admin_panel_settings"><path d="M680-280q25 0 42.5-17.5T740-340q0-25-17.5-42.5T680-400q-25 0-42.5 17.5T620-340q0 25 17.5 42.5T680-280Zm0 120q31 0 57-14.5t42-38.5q-22-13-47-20t-52-7q-27 0-52 7t-47 20q16 24 42 38.5t57 14.5ZM480-80q-139-35-229.5-159.5T160-516v-244l320-120 320 120v227q-19-8-39-14.5t-41-9.5v-147l-240-90-240 90v188q0 47 12.5 94t35 89.5Q310-290 342-254t71 60q11 32 29 61t41 52q-1 0-1.5.5t-1.5.5Zm200 0q-83 0-141.5-58.5T480-280q0-83 58.5-141.5T680-480q83 0 141.5 58.5T880-280q0 83-58.5 141.5T680-80ZM480-494Z" xmlns="http://www.w3.org/2000/svg" /></g>
  <g id="material-icon-admin_panel_settings-light"><path d="M672-288q30 0 51-21t21-51q0-30-21-51t-51-21q-30 0-51 21t-21 51q0 30 21 51t51 21Zm0 144q38.38 0 70.69-18.96 32.31-18.96 52.69-50.66Q767-232 736.23-242t-64-10Q639-252 608-242q-31 10-59.38 28.38 20.38 31.7 52.69 50.66Q633.62-144 672-144Zm-192 27.23q-123.77-30.39-207.88-143.77Q188-373.92 188-515v-215.15l292-112.31 292 112.31v220.61q-17-7.69-29.39-11.77-12.38-4.07-22.61-5.69v-168.38L480-787l-240 91.62V-515q0 55.15 15 105.81 15 50.65 42.85 93.69 27.84 43.04 66.96 76.58 39.11 33.54 85.96 56.46l1.16-.39q4.92 13 17.03 29.66 12.12 16.65 26.19 32.11-1.53.77-7.57 2.16-6.04 1.38-7.58 2.15Zm191.77.77q-71.69 0-121.73-50.27Q500-216.53 500-288.23q0-71.69 50.27-121.73Q600.53-460 672.23-460q71.69 0 121.73 50.27Q844-359.47 844-287.77q0 71.69-50.27 121.73Q743.47-116 671.77-116ZM480-474.23Z" xmlns="http://www.w3.org/2000/svg" /></g>
  <g id="material-icon-apps"><path d="M240-160q-33 0-56.5-23.5T160-240q0-33 23.5-56.5T240-320q33 0 56.5 23.5T320-240q0 33-23.5 56.5T240-160Zm240 0q-33 0-56.5-23.5T400-240q0-33 23.5-56.5T480-320q33 0 56.5 23.5T560-240q0 33-23.5 56.5T480-160Zm240 0q-33 0-56.5-23.5T640-240q0-33 23.5-56.5T720-320q33 0 56.5 23.5T800-240q0 33-23.5 56.5T720-160ZM240-400q-33 0-56.5-23.5T160-480q0-33 23.5-56.5T240-560q33 0 56.5 23.5T320-480q0 33-23.5 56.5T240-400Zm240 0q-33 0-56.5-23.5T400-480q0-33 23.5-56.5T480-560q33 0 56.5 23.5T560-480q0 33-23.5 56.5T480-400Zm240 0q-33 0-56.5-23.5T640-480q0-33 23.5-56.5T720-560q33 0 56.5 23.5T800-480q0 33-23.5 56.5T720-400ZM240-640q-33 0-56.5-23.5T160-720q0-33 23.5-56.5T240-800q33 0 56.5 23.5T320-720q0 33-23.5 56.5T240-640Zm240 0q-33 0-56.5-23.5T400-720q0-33 23.5-56.5T480-800q33 0 56.5 23.5T560-720q0 33-23.5 56.5T480-640Zm240 0q-33 0-56.5-23.5T640-720q0-33 23.5-56.5T720-800q33 0 56.5 23.5T800-720q0 33-23.5 56.5T720-640Z" xmlns="http://www.w3.org/2000/svg" /></g>
  <g id="material-icon-apps-light"><path d="M263.79-207.39q-23.44 0-39.92-16.69t-16.48-40.13q0-23.44 16.69-39.92t40.13-16.48q23.44 0 39.92 16.69t16.48 40.13q0 23.44-16.69 39.92t-40.13 16.48Zm216 0q-23.44 0-39.92-16.69t-16.48-40.13q0-23.44 16.69-39.92t40.13-16.48q23.44 0 39.92 16.69t16.48 40.13q0 23.44-16.69 39.92t-40.13 16.48Zm216 0q-23.44 0-39.92-16.69t-16.48-40.13q0-23.44 16.69-39.92t40.13-16.48q23.44 0 39.92 16.69t16.48 40.13q0 23.44-16.69 39.92t-40.13 16.48Zm-432-216q-23.44 0-39.92-16.69t-16.48-40.13q0-23.44 16.69-39.92t40.13-16.48q23.44 0 39.92 16.69t16.48 40.13q0 23.44-16.69 39.92t-40.13 16.48Zm216 0q-23.44 0-39.92-16.69t-16.48-40.13q0-23.44 16.69-39.92t40.13-16.48q23.44 0 39.92 16.69t16.48 40.13q0 23.44-16.69 39.92t-40.13 16.48Zm216 0q-23.44 0-39.92-16.69t-16.48-40.13q0-23.44 16.69-39.92t40.13-16.48q23.44 0 39.92 16.69t16.48 40.13q0 23.44-16.69 39.92t-40.13 16.48Zm-432-216q-23.44 0-39.92-16.69t-16.48-40.13q0-23.44 16.69-39.92t40.13-16.48q23.44 0 39.92 16.69t16.48 40.13q0 23.44-16.69 39.92t-40.13 16.48Zm216 0q-23.44 0-39.92-16.69t-16.48-40.13q0-23.44 16.69-39.92t40.13-16.48q23.44 0 39.92 16.69t16.48 40.13q0 23.44-16.69 39.92t-40.13 16.48Zm216 0q-23.44 0-39.92-16.69t-16.48-40.13q0-23.44 16.69-39.92t40.13-16.48q23.44 0 39.92 16.69t16.48 40.13q0 23.44-16.69 39.92t-40.13 16.48Z" xmlns="http://www.w3.org/2000/svg" /></g>
  <g id="material-icon-arrow_back"><path d="m313-440 224 224-57 56-320-320 320-320 57 56-224 224h487v80H313Z" xmlns="http://www.w3.org/2000/svg" /></g>
  <g id="material-icon-arrow_back-light"><path d="m311.92-454 204.85 204.85L480-212 212-480l268-268 36.77 37.15L311.92-506H748v52H311.92Z" xmlns="http://www.w3.org/2000/svg" /></g>
  <g id="material-icon-arrow_forward"><path d="M647-440H160v-80h487L423-744l57-56 320 320-320 320-57-56 224-224Z" xmlns="http://www.w3.org/2000/svg" /></g>
  <g id="material-icon-arrow_forward-light"><path d="M648.08-454H212v-52h436.08L443.23-710.85 480-748l268 268-268 268-36.77-37.15L648.08-454Z" xmlns="http://www.w3.org/2000/svg" /></g>
  <g id="material-icon-auto_awesome" transform="matrix(40 0 0 40 0 -960)"><path d="m19 9-1.25-2.75L15 5l2.75-1.25L19 1l1.25 2.75L23 5l-2.75 1.25Zm0 14-1.25-2.75L15 19l2.75-1.25L19 15l1.25 2.75L23 19l-2.75 1.25ZM9 20l-2.5-5.5L1 12l5.5-2.5L9 4l2.5 5.5L17 12l-5.5 2.5Zm0-4.85L10 13l2.15-1L10 11 9 8.85 8 11l-2.15 1L8 13ZM9 12Z" xmlns="http://www.w3.org/2000/svg" /></g>
  <g id="material-icon-auto_awesome-light" transform="matrix(40 0 0 40 0 -960)"><path d="m15.375 7.333-.917-2.021-1.979-.895 1.979-.917.917-2 .917 2 1.979.917-1.979.895Zm0 11.167-.917-1.979-1.979-.917 1.979-.896.917-2.02.917 2.02 1.979.896-1.979.917Zm-7.854-2.667-1.771-4-4-1.833 4-1.812 1.771-4 1.812 4L13.312 10l-3.979 1.833Zm0-3.271.812-1.729L10.042 10l-1.709-.812-.812-1.73-.792 1.73L5 10l1.729.833Zm0-2.562Z" xmlns="http://www.w3.org/2000/svg" /></g>
  <g id="material-icon-category"><path d="m260-520 220-360 220 360H260ZM700-80q-75 0-127.5-52.5T520-260q0-75 52.5-127.5T700-440q75 0 127.5 52.5T880-260q0 75-52.5 127.5T700-80Zm-580-20v-320h320v320H120Zm580-60q42 0 71-29t29-71q0-42-29-71t-71-29q-42 0-71 29t-29 71q0 42 29 71t71 29Zm-500-20h160v-160H200v160Zm202-420h156l-78-126-78 126Zm78 0ZM360-340Zm340 80Z" xmlns="http://www.w3.org/2000/svg" /></g>
  <g id="material-icon-category-light"><path d="M303.69-543.39 480-834.77l176.31 291.38H303.69Zm392.31 432q-63.85 0-108.23-44.38T543.39-264q0-63.85 44.38-108.23T696-416.61q63.85 0 108.23 44.38T848.61-264q0 63.85-44.38 108.23T696-111.39Zm-536.61-24v-257.22h257.22v257.22H159.39Zm536.37-27.99q42.16 0 71.51-29.11 29.35-29.11 29.35-71.27t-29.11-71.51q-29.11-29.35-71.27-29.35t-71.51 29.11q-29.35 29.11-29.35 71.27t29.11 71.51q29.11 29.35 71.27 29.35Zm-484.38-24h153.24v-153.24H211.38v153.24Zm184.16-408h168.92L480-733.46l-84.46 138.08Zm84.46 0ZM364.62-340.62ZM691-269Z" xmlns="http://www.w3.org/2000/svg" /></g>
  <g id="material-icon-check"><path d="M382-240 154-468l57-57 171 171 367-367 57 57-424 424Z" xmlns="http://www.w3.org/2000/svg" /></g>
  <g id="material-icon-check-light"><path d="M389-280.85 209.62-459.23 246.38-497 389-354.38 713.62-678l36.76 36.77L389-280.85Z" xmlns="http://www.w3.org/2000/svg" /></g>
  <g id="material-icon-check_circle"><path d="m424-296 282-282-56-56-226 226-114-114-56 56 170 170Zm56 216q-83 0-156-31.5T197-197q-54-54-85.5-127T80-480q0-83 31.5-156T197-763q54-54 127-85.5T480-880q83 0 156 31.5T763-763q54 54 85.5 127T880-480q0 83-31.5 156T763-197q-54 54-127 85.5T480-80Zm0-80q134 0 227-93t93-227q0-134-93-227t-227-93q-134 0-227 93t-93 227q0 134 93 227t227 93Zm0-320Z" xmlns="http://www.w3.org/2000/svg" /></g>
  <g id="material-icon-check_circle-light"><path d="m428.23-349.85 224.92-223.92L616-610.92 428.23-424.15l-85-84L306.08-471l122.15 121.15ZM480.07-116q-74.84 0-141.21-28.42t-116.18-78.21q-49.81-49.79-78.25-116.13Q116-405.1 116-479.93q0-75.84 28.42-141.71t78.21-115.68q49.79-49.81 116.13-78.25Q405.1-844 479.93-844q75.84 0 141.71 28.42t115.68 78.21q49.81 49.79 78.25 115.63Q844-555.9 844-480.07q0 74.84-28.42 141.21t-78.21 116.18q-49.79 49.81-115.63 78.25Q555.9-116 480.07-116Zm-.07-52q130 0 221-91t91-221q0-130-91-221t-221-91q-130 0-221 91t-91 221q0 130 91 221t221 91Zm0-312Z" xmlns="http://www.w3.org/2000/svg" /></g>
  <g id="material-icon-checklist"><path d="M222-200 80-342l56-56 85 85 170-170 56 57-225 226Zm0-320L80-662l56-56 85 85 170-170 56 57-225 226Zm298 240v-80h360v80H520Zm0-320v-80h360v80H520Z" xmlns="http://www.w3.org/2000/svg" /></g>
  <g id="material-icon-checklist-light"><path d="M237.77-237.92 116-359.69l36.77-36.77 84 85 170-170 37.77 36.77-206.77 206.77Zm0-296.62L116-656.31l36.77-36.77 85 85 169-170 37.77 36.77-206.77 206.77Zm290.61 228.85v-52h316v52h-316Zm0-296.62v-52h316v52h-316Z" xmlns="http://www.w3.org/2000/svg" /></g>
  <g id="material-icon-chevron_right"><path d="M504-480 320-664l56-56 240 240-240 240-56-56 184-184Z" xmlns="http://www.w3.org/2000/svg" /></g>
  <g id="material-icon-chevron_right-light"><path d="m535.85-480-189-189L384-706.15 610.15-480 384-253.85 346.85-291l189-189Z" xmlns="http://www.w3.org/2000/svg" /></g>
  <g id="material-icon-close"><path d="m256-200-56-56 224-224-224-224 56-56 224 224 224-224 56 56-224 224 224 224-56 56-224-224-224 224Z" xmlns="http://www.w3.org/2000/svg" /></g>
  <g id="material-icon-close-light"><path d="M291-253.85 253.85-291l189-189-189-189L291-706.15l189 189 189-189L706.15-669l-189 189 189 189L669-253.85l-189-189-189 189Z" xmlns="http://www.w3.org/2000/svg" /></g>
  <g id="material-icon-cloud_sync"><path d="M160-160v-80h109q-51-44-80-106t-29-134q0-112 68-197.5T400-790v84q-70 25-115 86.5T240-480q0 54 21.5 99.5T320-302v-98h80v240H160Zm440 0q-50 0-85-35t-35-85q0-48 33-82.5t81-36.5q17-36 50.5-58.5T720-480q53 0 91.5 34.5T858-360q42 0 72 29t30 70q0 42-29 71.5T860-160H600Zm116-360q-7-41-27-76t-49-62v98h-80v-240h240v80H691q43 38 70.5 89T797-520h-81ZM600-240h260q8 0 14-6t6-14q0-8-6-14t-14-6h-70v-50q0-29-20.5-49.5T720-400q-29 0-49.5 20.5T650-330v10h-50q-17 0-28.5 11.5T560-280q0 17 11.5 28.5T600-240Zm120-80Z" xmlns="http://www.w3.org/2000/svg" /></g>
  <g id="material-icon-cloud_sync-light"><path d="M229.08-205.08v-52h81.31Q255-306.31 228.5-361.21 202-416.12 202-478.46q0-93.6 55.04-166.69 55.04-73.08 140.96-99v54.23q-63.77 25.3-103.89 82.3-40.11 57-40.11 129.16 0 51.87 21.61 95.55 21.62 43.68 68.85 84.99v-74.54h52v167.38H229.08ZM636-202q-40.38 0-69.19-28.81Q538-259.62 538-300q0-41.15 28.62-69.77 28.61-28.61 72.07-28.61 12.85-30.62 42.09-51.12 29.25-20.5 68.13-20.5 46.17 0 80.01 30.04 33.85 30.04 38.69 77.96h6.16q31.77 1 54 24.42Q950-314.15 950-281.62q0 33.04-23.22 56.33Q903.57-202 870-202H636Zm65-331.39q-9.54-35.3-28.37-64.99-18.83-29.68-57.09-63.31v74.15h-52v-167.38h167.38v52h-81.31q46.39 41.23 70.31 82.19 23.93 40.96 33.69 87.34H701ZM636-254h234q12.23 0 20.12-7.88Q898-269.77 898-282t-8.58-20.12Q880.83-310 869-310h-58v-45q0-26.19-18.41-44.59Q774.17-418 747.97-418q-26.2 0-43.51 16.67-17.31 16.68-18.08 40.18V-346H636q-19.15 0-32.57 13.37Q590-319.27 590-300.21q0 19.06 13.43 32.63Q616.85-254 636-254Zm108-82Z" xmlns="http://www.w3.org/2000/svg" /></g>
  <g id="material-icon-cloud_upload"><path d="M260-160q-91 0-155.5-63T40-377q0-78 47-139t123-78q25-92 100-149t170-57q117 0 198.5 81.5T760-520q69 8 114.5 59.5T920-340q0 75-52.5 127.5T740-160H520q-33 0-56.5-23.5T440-240v-206l-64 62-56-56 160-160 160 160-56 56-64-62v206h220q42 0 71-29t29-71q0-42-29-71t-71-29h-60v-80q0-83-58.5-141.5T480-720q-83 0-141.5 58.5T280-520h-20q-58 0-99 41t-41 99q0 58 41 99t99 41h100v80H260Zm220-280Z" xmlns="http://www.w3.org/2000/svg" /></g>
  <g id="material-icon-cloud_upload-light"><path d="M240-212q-71.92 0-121.96-51.03Q68-314.06 68-386.15q0-72.54 52.46-123.62t123.46-48.54q17.66-83.44 83.9-136.56Q394.06-748 480-748q98.64 0 171.32 62.68Q724-622.64 724-528v20h12.31q64.23-3.08 109.96 40.35Q892-424.23 892-361q0 62.34-42.65 105.67Q806.69-212 744.77-212H518.31q-27.01 0-45.66-18.65Q454-249.3 454-276.31v-187.08l-67 67.77-37.15-36.76L480-562.54l130.15 130.16L573-395.62l-67-67.77v187.08q0 4.62 3.85 8.46 3.84 3.85 8.46 3.85H744q40.32 0 68.16-27.77 27.84-27.78 27.84-68Q840-400 812.16-428q-27.84-28-68.16-28h-72v-72q0-73-57.5-120.5t-135-47.5Q402-696 348-639.5T283-504h-43.77q-48.56 0-83.89 35.2-35.34 35.2-35.34 85t35.14 84.8q35.15 35 84.86 35h132v52H240Zm240-236Z" xmlns="http://www.w3.org/2000/svg" /></g>
  <g id="material-icon-dashboard"><path d="M520-600v-240h320v240H520ZM120-440v-400h320v400H120Zm400 320v-400h320v400H520Zm-400 0v-240h320v240H120Zm80-400h160v-240H200v240Zm400 320h160v-240H600v240Zm0-480h160v-80H600v80ZM200-200h160v-80H200v80Zm160-320Zm240-160Zm0 240ZM360-280Z" xmlns="http://www.w3.org/2000/svg" /></g>
  <g id="material-icon-dashboard-light"><path d="M538-624v-172h258v172H538ZM164-452v-344h258v344H164Zm374 288v-344h258v344H538Zm-374 0v-172h258v172H164Zm52-340h154v-240H216v240Zm374 288h154v-240H590v240Zm0-459h154v-69H590v69ZM216-216h154v-68H216v68Zm154-288Zm220-171Zm0 219ZM370-284Z" xmlns="http://www.w3.org/2000/svg" /></g>
  <g id="material-icon-dashboard_customize"><path d="M120-840h320v320H120v-320Zm80 80v160-160Zm320-80h320v320H520v-320Zm80 80v160-160ZM120-440h320v320H120v-320Zm80 80v160-160Zm440-80h80v120h120v80H720v120h-80v-120H520v-80h120v-120Zm-40-320v160h160v-160H600Zm-400 0v160h160v-160H200Zm0 400v160h160v-160H200Z" xmlns="http://www.w3.org/2000/svg" /></g>
  <g id="material-icon-dashboard_customize-light"><path d="M154-806h268v268H154v-268Zm52 52v164-164Zm332-52h268v268H538v-268Zm52 52v164-164ZM154-422h268v268H154v-268Zm52 52v164-164Zm440-52h52v108h108v52H698v108h-52v-108H538v-52h108v-108Zm-56-332v164h164v-164H590Zm-384 0v164h164v-164H206Zm0 384v164h164v-164H206Z" xmlns="http://www.w3.org/2000/svg" /></g>
  <g id="material-icon-database"><path d="M480-120q-151 0-255.5-46.5T120-280v-400q0-66 105.5-113T480-840q149 0 254.5 47T840-680v400q0 67-104.5 113.5T480-120Zm0-479q89 0 179-25.5T760-679q-11-29-100.5-55T480-760q-91 0-178.5 25.5T200-679q14 30 101.5 55T480-599Zm0 199q42 0 81-4t74.5-11.5q35.5-7.5 67-18.5t57.5-25v-120q-26 14-57.5 25t-67 18.5Q600-528 561-524t-81 4q-42 0-82-4t-75.5-11.5Q287-543 256-554t-56-25v120q25 14 56 25t66.5 18.5Q358-408 398-404t82 4Zm0 200q46 0 93.5-7t87.5-18.5q40-11.5 67-26t32-29.5v-98q-26 14-57.5 25t-67 18.5Q600-328 561-324t-81 4q-42 0-82-4t-75.5-11.5Q287-343 256-354t-56-25v99q5 15 31.5 29t66.5 25.5q40 11.5 88 18.5t94 7Z" xmlns="http://www.w3.org/2000/svg" /></g>
  <g id="material-icon-database-light"><path d="M479.5-164q-135.11 0-225.31-36.47Q164-236.93 164-291.85V-672q0-51.92 92.04-87.96Q348.08-796 479.5-796q131.42 0 223.96 36.04Q796-723.92 796-672v380.15q0 54.92-90.69 91.38Q614.61-164 479.5-164Zm.47-438.69q84.49 0 163.15-20.73 78.65-20.73 99.73-49.35-20.7-28.38-99.66-49.81Q564.23-744 479.97-744q-84.05 0-164.55 21.23-80.5 21.23-99.04 48.46 18.16 29 97.27 50.31 79.12 21.31 166.32 21.31Zm.03 193.15q41.62 0 80-4.5t72.27-12.69q33.88-8.19 62.19-21.08 28.31-12.88 49.54-29.27V-608q-23.48 13.61-52.66 24.38-29.19 10.77-63.4 17.81-34.22 7.04-71.77 10.69-37.55 3.66-76.67 3.66-39.88 0-77.69-3.85-37.81-3.84-71.39-10.88-33.57-7.04-62.88-17.73Q238.23-594.62 216-608v130.92q21.64 16.33 49.25 29.05 27.6 12.72 61.29 20.91 33.69 8.2 72.38 12.89 38.7 4.69 81.08 4.69Zm.32 193.54q46.01 0 90.17-5.82 44.15-5.82 80.28-15.94t60.98-23.56q24.85-13.44 32.25-28.3v-124.46q-23.48 13.61-52.66 24.38-29.19 10.78-63.4 17.82-34.22 7.04-71.77 10.69-37.55 3.65-76.67 3.65-39.88 0-77.69-3.84-37.81-3.85-71.39-10.89-33.57-7.04-62.88-17.73-29.31-10.69-51.54-24.08V-288q7.69 14.54 32.81 27.73 25.11 13.19 61.07 22.81 35.97 9.61 80.2 15.54 44.23 5.92 90.24 5.92Z" xmlns="http://www.w3.org/2000/svg" /></g>
  <g id="material-icon-delete"><path d="M280-120q-33 0-56.5-23.5T200-200v-520h-40v-80h200v-40h240v40h200v80h-40v520q0 33-23.5 56.5T680-120H280Zm400-600H280v520h400v-520ZM360-280h80v-360h-80v360Zm160 0h80v-360h-80v360ZM280-720v520-520Z" xmlns="http://www.w3.org/2000/svg" /></g>
  <g id="material-icon-delete-light"><path d="M324.31-164q-26.62 0-45.47-18.84Q260-201.69 260-228.31V-696h-48v-52h172v-43.38h192V-748h172v52h-48v467.26q0 27.74-18.65 46.24Q662.7-164 635.69-164H324.31ZM648-696H312v467.69q0 5.39 3.46 8.85t8.85 3.46h311.38q4.62 0 8.46-3.85 3.85-3.84 3.85-8.46V-696ZM400.16-288h51.99v-336h-51.99v336Zm107.69 0h51.99v-336h-51.99v336ZM312-696v480-480Z" xmlns="http://www.w3.org/2000/svg" /></g>
  <g id="material-icon-download"><path d="M480-320 280-520l56-58 104 104v-326h80v326l104-104 56 58-200 200ZM240-160q-33 0-56.5-23.5T160-240v-120h80v120h480v-120h80v120q0 33-23.5 56.5T720-160H240Z" xmlns="http://www.w3.org/2000/svg" /></g>
  <g id="material-icon-download-light"><path d="M480-344.46 317.23-507.23l37.16-36.38L454-444v-352h52v352l99.61-99.61 37.16 36.38L480-344.46ZM276.03-212q-27.03 0-45.53-18.65T212-276.31v-60.46h52v60.46q0 4.62 3.85 8.46 3.84 3.85 8.46 3.85h407.38q4.62 0 8.46-3.85 3.85-3.84 3.85-8.46v-60.46h52v60.46q0 27.01-18.66 45.66Q710.68-212 683.65-212H276.03Z" xmlns="http://www.w3.org/2000/svg" /></g>
  <g id="material-icon-download_for_offline"><path d="M280-280h400v-80H280v80Zm200-120 160-160-56-56-64 62v-166h-80v166l-64-62-56 56 160 160Zm0 320q-83 0-156-31.5T197-197q-54-54-85.5-127T80-480q0-83 31.5-156T197-763q54-54 127-85.5T480-880q83 0 156 31.5T763-763q54 54 85.5 127T880-480q0 83-31.5 156T763-197q-54 54-127 85.5T480-80Zm0-80q134 0 227-93t93-227q0-134-93-227t-227-93q-134 0-227 93t-93 227q0 134 93 227t227 93Zm0-320Z" xmlns="http://www.w3.org/2000/svg" /></g>
  <g id="material-icon-download_for_offline-light"><path d="M298-298h364v-52H298v52Zm182-123.85L610.15-552 573-589.15l-67 67.77V-686h-52v164.62l-67-67.77L349.85-552 480-421.85Zm.34 305.85q-75.11 0-141.48-28.42-66.37-28.42-116.18-78.21-49.81-49.79-78.25-116.09Q116-405.01 116-480.39q0-75.38 28.42-141.25t78.21-115.68q49.79-49.81 116.09-78.25Q405.01-844 480.39-844q75.38 0 141.25 28.42t115.68 78.21q49.81 49.79 78.25 115.85Q844-555.45 844-480.34q0 75.11-28.42 141.48-28.42 66.37-78.21 116.18-49.79 49.81-115.85 78.25Q555.45-116 480.34-116Zm-.34-52q130 0 221-91t91-221q0-130-91-221t-221-91q-130 0-221 91t-91 221q0 130 91 221t221 91Zm0-312Z" xmlns="http://www.w3.org/2000/svg" /></g>
  <g id="material-icon-edit"><path d="M200-200h57l391-391-57-57-391 391v57Zm-80 80v-170l528-527q12-11 26.5-17t30.5-6q16 0 31 6t26 18l55 56q12 11 17.5 26t5.5 30q0 16-5.5 30.5T817-647L290-120H120Zm640-584-56-56 56 56Zm-141 85-28-29 57 57-29-28Z" xmlns="http://www.w3.org/2000/svg" /></g>
  <g id="material-icon-edit-light"><path d="M216-216h44.46l393.46-393.46-44.46-44.46L216-260.46V-216Zm-52 52v-118.38l497.62-498.39q8.07-8.24 17.37-11.73 9.3-3.5 19.49-3.5 10.2 0 19.47 3.27 9.28 3.27 17.97 11.58l44.85 44.46q8.31 8.69 11.77 18 3.46 9.31 3.46 19.17 0 10.51-3.64 20.06-3.65 9.55-11.59 17.46L282.38-164H164Zm580.38-535.15-45.23-45.23 45.23 45.23ZM631.3-631.3l-21.84-22.62 44.46 44.46-22.62-21.84Z" xmlns="http://www.w3.org/2000/svg" /></g>
  <g id="material-icon-edit_note"><path d="M160-400v-80h280v80H160Zm0-160v-80h440v80H160Zm0-160v-80h440v80H160Zm360 560v-123l221-220q9-9 20-13t22-4q12 0 23 4.5t20 13.5l37 37q8 9 12.5 20t4.5 22q0 11-4 22.5T863-380L643-160H520Zm300-263-37-37 37 37ZM580-220h38l121-122-18-19-19-18-122 121v38Zm141-141-19-18 37 37-18-19Z" xmlns="http://www.w3.org/2000/svg" /></g>
  <g id="material-icon-edit_note-light"><path d="M212-396v-52h288v52H212Zm0-150v-52h432v52H212Zm0-150v-52h432v52H212Zm320.62 484v-95.69l206.15-205.16q5.72-5.87 12.24-8.2 6.52-2.33 12.93-2.33 6.99 0 13.56 2.53 6.58 2.54 11.96 7.62l44 45.38q5.05 5.72 7.79 12.29Q844-449 844-442.55t-2.53 13.11q-2.52 6.66-8.01 12.28L628.31-212h-95.69Zm275.69-230.31-45-45.38 45 45.38Zm-240 194.62h45l123.84-123.47-22.38-23-21.62-22.76-124.84 124.23v45Zm146.46-146.47-21.62-22.76 44 45.76-22.38-23Z" xmlns="http://www.w3.org/2000/svg" /></g>
  <g id="material-icon-error"><path d="M480-280q17 0 28.5-11.5T520-320q0-17-11.5-28.5T480-360q-17 0-28.5 11.5T440-320q0 17 11.5 28.5T480-280Zm-40-160h80v-240h-80v240Zm40 360q-83 0-156-31.5T197-197q-54-54-85.5-127T80-480q0-83 31.5-156T197-763q54-54 127-85.5T480-880q83 0 156 31.5T763-763q54 54 85.5 127T880-480q0 83-31.5 156T763-197q-54 54-127 85.5T480-80Zm0-80q134 0 227-93t93-227q0-134-93-227t-227-93q-134 0-227 93t-93 227q0 134 93 227t227 93Zm0-320Z" xmlns="http://www.w3.org/2000/svg" /></g>
  <g id="material-icon-error-light"><path d="M479.79-298.77q11.94 0 20.23-8.08 8.29-8.08 8.29-20.02t-8.08-20.23q-8.08-8.28-20.02-8.28t-20.23 8.07q-8.29 8.08-8.29 20.02t8.08 20.23q8.08 8.29 20.02 8.29ZM454-428.92h52v-240h-52v240ZM480.34-116q-75.11 0-141.48-28.42-66.37-28.42-116.18-78.21-49.81-49.79-78.25-116.09Q116-405.01 116-480.39q0-75.38 28.42-141.25t78.21-115.68q49.79-49.81 116.09-78.25Q405.01-844 480.39-844q75.38 0 141.25 28.42t115.68 78.21q49.81 49.79 78.25 115.85Q844-555.45 844-480.34q0 75.11-28.42 141.48-28.42 66.37-78.21 116.18-49.79 49.81-115.85 78.25Q555.45-116 480.34-116Zm-.34-52q130 0 221-91t91-221q0-130-91-221t-221-91q-130 0-221 91t-91 221q0 130 91 221t221 91Zm0-312Z" xmlns="http://www.w3.org/2000/svg" /></g>
  <g id="material-icon-expand_more"><path d="M480-345 240-585l56-56 184 184 184-184 56 56-240 240Z" xmlns="http://www.w3.org/2000/svg" /></g>
  <g id="material-icon-expand_more-light"><path d="M480-346.46 253.85-572.62 291-609.77l189 189 189-189 37.15 37.15L480-346.46Z" xmlns="http://www.w3.org/2000/svg" /></g>
  <g id="material-icon-grid_view"><path d="M120-520v-320h320v320H120Zm0 400v-320h320v320H120Zm400-400v-320h320v320H520Zm0 400v-320h320v320H520ZM200-600h160v-160H200v160Zm400 0h160v-160H600v160Zm0 400h160v-160H600v160Zm-400 0h160v-160H200v160Zm400-400Zm0 240Zm-240 0Zm0-240Z" xmlns="http://www.w3.org/2000/svg" /></g>
  <g id="material-icon-grid_view-light"><path d="M164-528v-268h268v268H164Zm0 364v-268h268v268H164Zm364-364v-268h268v268H528Zm0 364v-268h268v268H528ZM216-580h164v-164H216v164Zm364 0h164v-164H580v164Zm0 364h164v-164H580v164Zm-364 0h164v-164H216v164Zm364-364Zm0 200Zm-200 0Zm0-200Z" xmlns="http://www.w3.org/2000/svg" /></g>
  <g id="material-icon-group"><path d="M40-160v-112q0-34 17.5-62.5T104-378q62-31 126-46.5T360-440q66 0 130 15.5T616-378q29 15 46.5 43.5T680-272v112H40Zm720 0v-120q0-44-24.5-84.5T666-434q51 6 96 20.5t84 35.5q36 20 55 44.5t19 53.5v120H760ZM360-480q-66 0-113-47t-47-113q0-66 47-113t113-47q66 0 113 47t47 113q0 66-47 113t-113 47Zm400-160q0 66-47 113t-113 47q-11 0-28-2.5t-28-5.5q27-32 41.5-71t14.5-81q0-42-14.5-81T544-792q14-5 28-6.5t28-1.5q66 0 113 47t47 113ZM120-240h480v-32q0-11-5.5-20T580-306q-54-27-109-40.5T360-360q-56 0-111 13.5T140-306q-9 5-14.5 14t-5.5 20v32Zm240-320q33 0 56.5-23.5T440-640q0-33-23.5-56.5T360-720q-33 0-56.5 23.5T280-640q0 33 23.5 56.5T360-560Zm0 320Zm0-400Z" xmlns="http://www.w3.org/2000/svg" /></g>
  <g id="material-icon-group-light"><path d="M127.93-219.69v-68.93q0-22.7 10.96-40.08t30.63-28.87q49.02-28.89 103.17-45.51 54.16-16.61 123.23-16.61 69.08 0 123.23 16.61 54.16 16.62 103.18 45.51 19.67 11.49 30.63 28.87 10.96 17.38 10.96 40.08v68.93H127.93Zm607.99 0v-65.85q0-37.38-14.28-68.57-14.29-31.18-37.72-50.73 28.23 8 55.89 19.57 27.65 11.58 54.5 27.73 17 9.54 27.38 29.16 10.38 19.62 10.38 42.84v65.85h-96.15Zm-340-272.62q-51.75 0-87.87-36.12-36.12-36.13-36.12-87.88 0-51.75 36.12-87.87 36.12-36.13 87.87-36.13 51.75 0 87.88 36.13 36.12 36.12 36.12 87.87 0 51.75-36.12 87.88-36.13 36.12-87.88 36.12Zm281.38-124q0 51.75-36.12 87.88-36.12 36.12-87.87 36.12-3.77 0-4.23.46-.47.46-4.23-.38 21.66-25.45 34.37-56.62 12.7-31.17 12.7-67.5 0-36.34-12.96-67.23-12.96-30.88-34.11-56.8 2.61-.08 4.23 0 1.61.07 4.23.07 51.75 0 87.87 36.13 36.12 36.12 36.12 87.87ZM179.92-271.69h432v-16.93q0-8-3.79-14.07-3.79-6.06-13.36-11.31-42.38-25.46-91.69-39.58-49.31-14.11-107.16-14.11-57.84 0-107.15 13.61-49.31 13.62-91.69 40.08-9.57 5.13-13.36 10.99-3.8 5.86-3.8 14.3v17.02Zm216.22-272.62q29.78 0 50.78-21.21t21-51q0-29.79-21.21-50.79t-51-21q-29.79 0-50.79 21.22-21 21.21-21 51 0 29.78 21.22 50.78 21.21 21 51 21Zm-.22 272.62Zm0-344.62Z" xmlns="http://www.w3.org/2000/svg" /></g>
  <g id="material-icon-groups"><path d="M0-240v-63q0-43 44-70t116-27q13 0 25 .5t23 2.5q-14 21-21 44t-7 48v65H0Zm240 0v-65q0-32 17.5-58.5T307-410q32-20 76.5-30t96.5-10q53 0 97.5 10t76.5 30q32 20 49 46.5t17 58.5v65H240Zm540 0v-65q0-26-6.5-49T754-397q11-2 22.5-2.5t23.5-.5q72 0 116 26.5t44 70.5v63H780Zm-455-80h311q-10-20-55.5-35T480-370q-55 0-100.5 15T325-320ZM160-440q-33 0-56.5-23.5T80-520q0-34 23.5-57t56.5-23q34 0 57 23t23 57q0 33-23 56.5T160-440Zm640 0q-33 0-56.5-23.5T720-520q0-34 23.5-57t56.5-23q34 0 57 23t23 57q0 33-23 56.5T800-440Zm-320-40q-50 0-85-35t-35-85q0-51 35-85.5t85-34.5q51 0 85.5 34.5T600-600q0 50-34.5 85T480-480Zm0-80q17 0 28.5-11.5T520-600q0-17-11.5-28.5T480-640q-17 0-28.5 11.5T440-600q0 17 11.5 28.5T480-560Zm1 240Zm-1-280Z" xmlns="http://www.w3.org/2000/svg" /></g>
  <g id="material-icon-groups-light"><path d="M20-248.46v-44.77q0-47.92 42.69-75.58 42.7-27.65 115.7-27.65 13.07 0 27.3 1.69t29.62 4.69q-14.69 17.7-22.85 39.81-8.15 22.12-8.15 43.83v57.98H20Zm240 0v-51q0-23.95 12.77-43.78 12.77-19.84 34.46-29.14 41.69-19.31 84.66-29.46Q434.85-412 479.38-412q45.39 0 88.35 10.16 42.96 10.15 84.65 29.46 21.7 9.3 34.66 29.14Q700-323.41 700-299.46v51H260Zm495.69 0v-58.8q0-23.52-8.34-44.32-8.35-20.8-23.04-38.5 17.77-3 31.5-4.69 13.73-1.69 26.19-1.69 73 0 115.5 27.85 42.5 27.84 42.5 75.38v44.77H755.69Zm-443.61-52h335.46v-4.23q-3.15-21.23-55.08-38.27Q540.54-360 480-360q-60.54 0-112.46 17.04-51.93 17.04-55.46 38.27v4.23ZM178.07-443.31q-25.07 0-42.61-17.63-17.54-17.64-17.54-42.41 0-25.03 17.64-42.76 17.64-17.73 42.4-17.73 25.04 0 42.96 17.49 17.93 17.49 17.93 42.91 0 24.67-17.48 42.4-17.47 17.73-43.3 17.73Zm603.72 0q-24.79 0-42.52-17.75-17.73-17.76-17.73-42.17 0-25.15 17.76-42.88 17.75-17.73 42.35-17.73 25.35 0 43.08 17.49 17.73 17.49 17.73 42.79 0 25.03-17.44 42.64-17.45 17.61-43.23 17.61ZM479.64-460q-42.72 0-73.1-30.29-30.38-30.28-30.38-73.55 0-43.14 30.28-73.49 30.29-30.36 73.56-30.36 43.13 0 73.49 30.32 30.35 30.31 30.35 73.89 0 42.71-30.31 73.1Q523.21-460 479.64-460Zm.55-52q21.75 0 36.7-15.14 14.96-15.15 14.96-36.9 0-21.74-14.91-36.7-14.91-14.95-36.94-14.95-21.55 0-36.7 14.91-15.15 14.9-15.15 36.94 0 21.55 15.15 36.7Q458.45-512 480.19-512Zm-.57 211.54Zm.38-263.38Z" xmlns="http://www.w3.org/2000/svg" /></g>
  <g id="material-icon-history"><path d="M480-120q-138 0-240.5-91.5T122-440h82q14 104 92.5 172T480-200q117 0 198.5-81.5T760-480q0-117-81.5-198.5T480-760q-69 0-129 32t-101 88h110v80H120v-240h80v94q51-64 124.5-99T480-840q75 0 140.5 28.5t114 77q48.5 48.5 77 114T840-480q0 75-28.5 140.5t-77 114q-48.5 48.5-114 77T480-120Zm112-192L440-464v-216h80v184l128 128-56 56Z" xmlns="http://www.w3.org/2000/svg" /></g>
  <g id="material-icon-history-light"><path d="M479.23-164q-131.92 0-223.96-92.04-92.04-92.04-91.65-223.96h51.23q1.15 108.62 78.27 186.31Q370.23-216 479.23-216q109 0 186.5-77.5t77.5-186.5q0-109-77.5-186.5T479.23-744q-58.54 0-108.39 22.72-49.86 22.71-86.15 62.51h101.62v52H183.23v-203.08h52v130.77q43.69-53.46 106.62-85.19Q404.77-796 479.23-796q65.77 0 123.25 24.87 57.48 24.87 100.24 67.64 42.77 42.76 67.64 100.24 24.87 57.48 24.87 123.25 0 65.77-24.87 123.25-24.87 57.48-67.64 100.24-42.76 42.77-100.24 67.64Q545-164 479.23-164Zm108.08-186.92L454.39-483.85V-672h51.99v165.85l118.08 118.07-37.15 37.16Z" xmlns="http://www.w3.org/2000/svg" /></g>
  <g id="material-icon-history_toggle_off"><path d="M612-292 440-464v-216h80v184l148 148-56 56Zm-498-25q-13-29-21-60t-11-63h81q3 21 8.5 42t13.5 41l-71 40ZM82-520q3-32 11-63.5t22-60.5l70 40q-8 20-13.5 41t-8.5 43H82Zm165 366q-27-20-50-43.5T154-248l70-40q14 18 29.5 33.5T287-225l-40 71Zm-22-519-71-40q20-27 43-50t50-43l40 71q-17 14-32.5 29.5T225-673ZM440-82q-32-3-63.5-11T316-115l40-70q20 8 41 13.5t43 8.5v81Zm-84-693-40-70q29-14 60.5-22t63.5-11v81q-22 3-43 8.5T356-775ZM520-82v-81q22-3 43-8.5t41-13.5l40 70q-29 14-60.5 22T520-82Zm84-693q-20-8-41-13.5t-43-8.5v-81q32 3 63.5 11t60.5 22l-40 70Zm109 621-40-71q17-14 32.5-29.5T735-287l71 40q-20 27-43 50.5T713-154Zm22-519q-14-17-29.5-32.5T673-735l40-71q27 19 50 42t42 50l-70 41Zm62 153q-3-22-8.5-43T775-604l70-41q13 30 21.5 61.5T878-520h-81Zm48 204-70-40q8-20 13.5-41t8.5-43h81q-3 32-11 63.5T845-316Z" xmlns="http://www.w3.org/2000/svg" /></g>
  <g id="material-icon-history_toggle_off-light"><path d="m614-324.23-160-160V-710h52v204.23L650.77-361 614-324.23Zm-461.08 3.08q-15.92-30.93-25-64.74-9.07-33.8-11.69-68.11h52.62q1.61 28.38 8.96 54.5 7.34 26.12 19.42 51.35l-44.31 27ZM117.23-506q2.62-34.31 11.39-67.92 8.77-33.62 24.3-64.93l45.31 26q-12.46 25.23-20.11 52.04-7.66 26.81-9.27 54.81h-51.62Zm159.23 326.69q-28.3-19.38-53.23-43.42-24.92-24.04-44.31-52.35l45.31-27.38q14.92 23.61 34.77 42.96t43.46 35.27l-26 44.92Zm-52.23-478.23-45.31-26q19.39-29.3 43.81-53.54 24.43-24.23 53.73-43.61l26 44.92q-23 15.92-42.65 35.08-19.66 19.15-35.58 43.15ZM454-116.23q-34.31-2.62-67.92-11.89-33.62-9.27-64.93-24.8l26-44.31q25.23 12.46 52.04 19.61 26.81 7.16 54.81 8.77v52.62ZM348.15-761.77l-27-45.31q31.31-15.53 64.93-24.8 33.61-9.27 67.92-11.89v52.62q-28 1.61-54.31 9.27-26.31 7.65-51.54 20.11ZM506-116.23v-52.62q28-1.61 54.81-8.77 26.81-7.15 52.04-19.61l26 44.31q-31.31 15.53-64.93 24.8-33.61 9.27-67.92 11.89Zm106.85-646.54q-25.23-12.46-52.04-19.61-26.81-7.16-54.81-8.77v-52.62q34.31 2.62 67.92 11.89 33.62 9.27 64.93 24.8l-26 44.31Zm70.69 583.46-26-43.92q24-15.92 43.15-36.08 19.16-20.15 35.08-43.15l44.92 27q-19.38 28.3-44.11 52.34-24.74 24.04-53.04 43.81Zm52.23-478.61q-15.92-23-35.58-42.46-19.65-19.47-42.65-35.39l26-44.92q28.3 19.77 53.04 43.81 24.73 24.04 44.5 52.34l-45.31 26.62ZM791.15-506q-1.61-28-8.96-54.31-7.34-26.31-19.81-51.92l44.7-26.62q15.92 30.93 25 64.54 9.07 33.62 11.69 68.31h-52.62Zm15.93 184.85-44.31-26q12.46-25.23 19.61-52.04 7.16-26.81 8.77-54.81h52.62q-2.62 34.31-11.89 67.92-9.27 33.62-24.8 64.93Z" xmlns="http://www.w3.org/2000/svg" /></g>
  <g id="material-icon-how_to_reg"><path d="M80-160v-112q0-33 17-62t47-44q51-26 115-44t141-18q30 0 58.5 3t55.5 9l-70 70q-11-2-21.5-2H400q-71 0-127.5 17T180-306q-9 5-14.5 14t-5.5 20v32h250l80 80H80Zm542 16L484-282l56-56 82 82 202-202 56 56-258 258ZM400-480q-66 0-113-47t-47-113q0-66 47-113t113-47q66 0 113 47t47 113q0 66-47 113t-113 47Zm10 240Zm-10-320q33 0 56.5-23.5T480-640q0-33-23.5-56.5T400-720q-33 0-56.5 23.5T320-640q0 33 23.5 56.5T400-560Zm0-80Z" xmlns="http://www.w3.org/2000/svg" /></g>
  <g id="material-icon-how_to_reg-light"><path d="M114.85-219.69v-68.93q0-24.84 11.54-41.15 11.53-16.31 30.07-27.77 54-32 107.69-47.07 53.7-15.08 118.7-15.08 23 0 43.8 2.42 20.81 2.42 42.2 7.27l-44.08 45.08q-15-2-24.31-2.39-9.31-.38-17.61-.38-53 0-101.93 12.84Q232-342 184-314q-9.57 5.25-13.36 11.31-3.79 6.07-3.79 14.07v16.93h278.3l51 52h-381.3ZM621-205.85 499.85-328 536-365.15l85 85 187-186L845.15-430 621-205.85ZM382.85-492.31q-51.75 0-87.88-36.12-36.12-36.13-36.12-87.88 0-51.75 36.12-87.87 36.13-36.13 87.88-36.13 51.75 0 87.87 36.13 36.12 36.12 36.12 87.87 0 51.75-36.12 87.88-36.12 36.12-87.87 36.12Zm62.3 220.62Zm-62.09-272.62q29.79 0 50.79-21.21t21-51q0-29.79-21.22-50.79-21.21-21-51-21-29.78 0-50.78 21.22-21 21.21-21 51 0 29.78 21.21 50.78t51 21Zm-.21-72Z" xmlns="http://www.w3.org/2000/svg" /></g>
  <g id="material-icon-inbox"><path d="M200-120q-33 0-56.5-23.5T120-200v-560q0-33 23.5-56.5T200-840h560q33 0 56.5 23.5T840-760v560q0 33-23.5 56.5T760-120H200Zm0-80h560v-120H640q-30 38-71.5 59T480-240q-47 0-88.5-21T320-320H200v120Zm280-120q38 0 69-22t43-58h168v-360H200v360h168q12 36 43 58t69 22ZM200-200h560-560Z" xmlns="http://www.w3.org/2000/svg" /></g>
  <g id="material-icon-inbox-light"><path d="M228.31-164Q202-164 183-183q-19-19-19-45.31v-503.38q0-27.01 19-45.66Q202-796 228.31-796h503.38q27.01 0 45.66 18.65Q796-758.7 796-731.69v503.38Q796-202 777.35-183q-18.65 19-45.66 19H228.31Zm0-52h503.38q5.39 0 8.85-3.46t3.46-8.85v-139.38H620.46q-19.15 43-56.96 69.5t-83.5 26.5q-46.69 0-84.5-26t-55.96-70H216v139.38q0 5.39 3.46 8.85t8.85 3.46ZM480-323.69q40 0 68-28t28-68h168v-312q0-5.39-3.46-8.85t-8.85-3.46H228.31q-5.39 0-8.85 3.46t-3.46 8.85v312h168q0 40 28 68t68 28ZM228.31-216H216h528H228.31Z" xmlns="http://www.w3.org/2000/svg" /></g>
  <g id="material-icon-info"><path d="M440-280h80v-240h-80v240Zm40-320q17 0 28.5-11.5T520-640q0-17-11.5-28.5T480-680q-17 0-28.5 11.5T440-640q0 17 11.5 28.5T480-600Zm0 520q-83 0-156-31.5T197-197q-54-54-85.5-127T80-480q0-83 31.5-156T197-763q54-54 127-85.5T480-880q83 0 156 31.5T763-763q54 54 85.5 127T880-480q0 83-31.5 156T763-197q-54 54-127 85.5T480-80Zm0-80q134 0 227-93t93-227q0-134-93-227t-227-93q-134 0-227 93t-93 227q0 134 93 227t227 93Zm0-320Z" xmlns="http://www.w3.org/2000/svg" /></g>
  <g id="material-icon-info-light"><path d="M454-298h52v-230h-52v230Zm25.79-290.46q11.94 0 20.23-8.08 8.29-8.08 8.29-20.02t-8.08-20.23q-8.08-8.28-20.02-8.28T459.98-637q-8.29 8.08-8.29 20.02t8.08 20.23q8.08 8.29 20.02 8.29Zm.55 472.46q-75.11 0-141.48-28.42-66.37-28.42-116.18-78.21-49.81-49.79-78.25-116.09Q116-405.01 116-480.39q0-75.38 28.42-141.25t78.21-115.68q49.79-49.81 116.09-78.25Q405.01-844 480.39-844q75.38 0 141.25 28.42t115.68 78.21q49.81 49.79 78.25 115.85Q844-555.45 844-480.34q0 75.11-28.42 141.48-28.42 66.37-78.21 116.18-49.79 49.81-115.85 78.25Q555.45-116 480.34-116Zm-.34-52q130 0 221-91t91-221q0-130-91-221t-221-91q-130 0-221 91t-91 221q0 130 91 221t221 91Zm0-312Z" xmlns="http://www.w3.org/2000/svg" /></g>
  <g id="material-icon-insert_drive_file"><path d="M320-240h320v-80H320v80Zm0-160h320v-80H320v80ZM240-80q-33 0-56.5-23.5T160-160v-640q0-33 23.5-56.5T240-880h320l240 240v480q0 33-23.5 56.5T720-80H240Zm280-520v-200H240v640h480v-440H520ZM240-800v200-200 640-640Z" xmlns="http://www.w3.org/2000/svg" /></g>
  <g id="material-icon-insert_drive_file-light"><path d="M346-250h268v-52H346v52Zm0-144h268v-52H346v52Zm-69.97 278q-27.03 0-45.53-18.65T212-180.31v-599.38q0-27.01 18.65-45.66Q249.3-844 276.31-844H586l162 162v501.69q0 27.01-18.66 45.66Q710.68-116 683.65-116H276.03ZM548-644v-148H276.31q-4.62 0-8.46 3.85-3.85 3.84-3.85 8.46v599.38q0 4.62 3.85 8.46 3.84 3.85 8.46 3.85h407.38q4.62 0 8.46-3.85 3.85-3.84 3.85-8.46V-644H548ZM264-792v169-169V-168v-624Z" xmlns="http://www.w3.org/2000/svg" /></g>
  <g id="material-icon-inventory_2"><path d="M200-80q-33 0-56.5-23.5T120-160v-451q-18-11-29-28.5T80-680v-120q0-33 23.5-56.5T160-880h640q33 0 56.5 23.5T880-800v120q0 23-11 40.5T840-611v451q0 33-23.5 56.5T760-80H200Zm0-520v440h560v-440H200Zm-40-80h640v-120H160v120Zm200 280h240v-80H360v80Zm120 20Z" xmlns="http://www.w3.org/2000/svg" /></g>
  <g id="material-icon-inventory_2-light"><path d="M228.31-116q-26.62 0-45.47-18.84Q164-153.69 164-180.31v-408.92q-20.61-6.08-34.31-23.81Q116-630.77 116-652.62v-127.07q0-26.62 18.84-45.47Q153.69-844 180.31-844h599.38q26.62 0 45.47 18.84Q844-806.31 844-779.69v127.07q0 21.85-13.69 39.58-13.7 17.73-34.31 23.81v408.79q0 27.05-18.84 45.75Q758.31-116 731.69-116H228.31ZM216-588.31v406.08q0 6.15 4.42 10.19 4.43 4.04 10.97 4.04h500.3q5.39 0 8.85-3.46t3.46-8.85v-408H216Zm-35.69-52h599.38q5.39 0 8.85-3.46t3.46-8.85v-127.07q0-5.39-3.46-8.85t-8.85-3.46H180.31q-5.39 0-8.85 3.46t-3.46 8.85v127.07q0 5.39 3.46 8.85t8.85 3.46Zm211.38 209.62h176.62V-480H391.69v49.31ZM480-378.15Z" xmlns="http://www.w3.org/2000/svg" /></g>
  <g id="material-icon-label"><path d="M840-480 666-234q-11 16-28.5 25t-37.5 9H200q-33 0-56.5-23.5T120-280v-400q0-33 23.5-56.5T200-760h400q20 0 37.5 9t28.5 25l174 246Zm-98 0L600-680H200v400h400l142-200Zm-542 0v200-400 200Z" xmlns="http://www.w3.org/2000/svg" /></g>
  <g id="material-icon-label-light"><path d="M796-480 641.38-288.54q-11.77 13.77-27.17 21.15-15.41 7.39-32.9 7.39h-305q-26.62 0-45.47-18.84Q212-297.69 212-324.31v-311.38q0-26.62 18.84-45.47Q249.69-700 276.31-700h305q17.88 0 33.09 7.77 15.21 7.77 26.98 21.54L796-480Zm-67.38 0L600.54-638q-3.08-4.23-8.27-7.12-5.19-2.88-10.96-2.88h-305q-4.62 0-8.46 3.85-3.85 3.84-3.85 8.46v311.38q0 4.62 3.85 8.46 3.84 3.85 8.46 3.85h305q5.77 0 10.96-2.88 5.19-2.89 8.27-7.12l128.08-158ZM264-480v168-336 168Z" xmlns="http://www.w3.org/2000/svg" /></g>
  <g id="material-icon-lock"><path d="M240-80q-33 0-56.5-23.5T160-160v-400q0-33 23.5-56.5T240-640h40v-80q0-83 58.5-141.5T480-920q83 0 141.5 58.5T680-720v80h40q33 0 56.5 23.5T800-560v400q0 33-23.5 56.5T720-80H240Zm0-80h480v-400H240v400Zm240-120q33 0 56.5-23.5T560-360q0-33-23.5-56.5T480-440q-33 0-56.5 23.5T400-360q0 33 23.5 56.5T480-280ZM360-640h240v-80q0-50-35-85t-85-35q-50 0-85 35t-35 85v80ZM240-160v-400 400Z" xmlns="http://www.w3.org/2000/svg" /></g>
  <g id="material-icon-lock-light"><path d="M276.03-116q-26.64 0-45.34-18.84Q212-153.69 212-180.31v-359.38q0-26.62 18.84-45.47Q249.69-604 276.31-604H308v-96q0-71.6 50.27-121.8Q408.53-872 480.23-872q71.69 0 121.73 50.2Q652-771.6 652-700v96h31.69q26.62 0 45.47 18.84Q748-566.31 748-539.69v359.38q0 26.62-18.86 45.47Q710.29-116 683.65-116H276.03Zm.28-52h407.38q5.39 0 8.85-3.46t3.46-8.85v-359.38q0-5.39-3.46-8.85t-8.85-3.46H276.31q-5.39 0-8.85 3.46t-3.46 8.85v359.38q0 5.39 3.46 8.85t8.85 3.46Zm203.9-130q25.94 0 43.87-18.14Q542-334.27 542-360.21t-18.14-43.87Q505.73-422 479.79-422t-43.87 18.14Q418-385.73 418-359.79t18.14 43.87Q454.27-298 480.21-298ZM360-604h240v-96q0-50-35-85t-85-35q-50 0-85 35t-35 85v96Zm-96 436v-384 384Z" xmlns="http://www.w3.org/2000/svg" /></g>
  <g id="material-icon-lock_reset"><path d="M520-120q-74 0-138.5-27.5T268-223l57-57q38 37 88 58.5T520-200q116 0 198-82t82-198q0-116-82-198t-198-82q-116 0-198 82t-82 198v7l73-73 57 56-170 170L30-490l57-56 73 74v-8q0-75 28.5-140.5t77-114q48.5-48.5 114-77T520-840q75 0 140.5 28.5t114 77q48.5 48.5 77 114T880-480q0 150-105 255T520-120Zm-80-200q-17 0-28.5-11.5T400-360v-120q0-17 11.5-28.5T440-520v-40q0-33 23.5-56.5T520-640q33 0 56.5 23.5T600-560v40q17 0 28.5 11.5T640-480v120q0 17-11.5 28.5T600-320H440Zm40-200h80v-40q0-17-11.5-28.5T520-600q-17 0-28.5 11.5T480-560v40Z" xmlns="http://www.w3.org/2000/svg" /></g>
  <g id="material-icon-lock_reset-light"><path d="M480-164q-74.85 0-138.81-32.19-63.96-32.2-108.03-86.73l37.15-37.77q36.77 48.23 90.42 76.46Q414.38-216 480-216q109.76 0 186.88-77.12Q744-370.24 744-480q0-109.37-77.44-186.69-77.45-77.31-187-77.31Q370-744 292-665.5T216-474v24.23l63.54-63.54 36.77 36.77L190-350.23 63.69-476.54l36.77-36.77L164-448.77V-473q-1-67.8 23.77-127.13t68.27-102.83q43.5-43.5 101.32-68.27Q415.19-796 480.48-796t122.77 24.87q57.48 24.87 100.24 67.64 42.77 42.76 67.64 100.22Q796-545.82 796-480.03q0 131.57-92.17 223.8Q611.67-164 480-164Zm-71.72-176.62q-14.3 0-24.14-9.66-9.83-9.67-9.83-23.96v-107.8q0-14.29 10.37-24t25.71-9.71v-38.39q0-28.82 20.51-49.34Q451.42-624 480.24-624q28.81 0 49.2 20.47 20.39 20.47 20.39 49.22V-516q15.24 0 25.55 9.69 10.31 9.68 10.31 24v108q0 14.32-9.67 24.01-9.67 9.68-23.96 9.68H408.28ZM441.69-516h76.62v-37.95q0-16.13-11.06-27.4t-27.04-11.27q-15.98 0-27.25 11.12t-11.27 27.34V-516Z" xmlns="http://www.w3.org/2000/svg" /></g>
  <g id="material-icon-login"><path d="M480-120v-80h280v-560H480v-80h280q33 0 56.5 23.5T840-760v560q0 33-23.5 56.5T760-120H480Zm-80-160-55-58 102-102H120v-80h327L345-622l55-58 200 200-200 200Z" xmlns="http://www.w3.org/2000/svg" /></g>
  <g id="material-icon-login-light"><path d="M479.62-164v-52h252.07q4.62 0 8.46-3.85 3.85-3.84 3.85-8.46v-503.38q0-4.62-3.85-8.46-3.84-3.85-8.46-3.85H479.62v-52h252.07q27.01 0 45.66 18.65Q796-758.7 796-731.69v503.38q0 27.01-18.65 45.66Q758.7-164 731.69-164H479.62Zm-46.23-177.23-37.54-36.39L472.23-454H164v-52h308.23l-76.38-76.38 37.54-36.39L572.15-480 433.39-341.23Z" xmlns="http://www.w3.org/2000/svg" /></g>
  <g id="material-icon-logout"><path d="M200-120q-33 0-56.5-23.5T120-200v-560q0-33 23.5-56.5T200-840h280v80H200v560h280v80H200Zm440-160-55-58 102-102H360v-80h327L585-622l55-58 200 200-200 200Z" xmlns="http://www.w3.org/2000/svg" /></g>
  <g id="material-icon-logout-light"><path d="M228.31-164q-27.01 0-45.66-18.65Q164-201.3 164-228.31v-503.38q0-27.01 18.65-45.66Q201.3-796 228.31-796h252.07v52H228.31q-4.62 0-8.46 3.85-3.85 3.84-3.85 8.46v503.38q0 4.62 3.85 8.46 3.84 3.85 8.46 3.85h252.07v52H228.31Zm428.92-177.23-37.54-36.39L696.08-454H387.85v-52h308.23l-76.39-76.38 37.54-36.39L796-480 657.23-341.23Z" xmlns="http://www.w3.org/2000/svg" /></g>
  <g id="material-icon-mark_email_read"><path d="M638-80 468-250l56-56 114 114 226-226 56 56L638-80ZM480-520l320-200H160l320 200Zm0 80L160-640v400h206l80 80H160q-33 0-56.5-23.5T80-240v-480q0-33 23.5-56.5T160-800h640q33 0 56.5 23.5T880-720v174l-80 80v-174L480-440Zm0 0Zm0-80Zm0 80Z" xmlns="http://www.w3.org/2000/svg" /></g>
  <g id="material-icon-mark_email_read-light"><path d="M664.77-110.62 543.62-232.77l36.15-37.15 85 85 187.77-186.77 37.15 36.15-224.92 224.92ZM480-517l305.85-179h-611.7L480-517Zm0 67.31L168-633.31v357q0 5.39 3.46 8.85t8.85 3.46H410l52 52H180.31q-27.01 0-45.66-18.66Q116-249.32 116-276.35v-407.62Q116-711 134.5-730t45.81-18h599.38q27.31 1 45.81 19.36 18.5 18.35 18.5 44.95v219.54l-52 51v-220.16L480-449.69Zm0 6.54Zm0-73.85Zm0 66.31Z" xmlns="http://www.w3.org/2000/svg" /></g>
  <g id="material-icon-menu"><path d="M120-240v-80h720v80H120Zm0-200v-80h720v80H120Zm0-200v-80h720v80H120Z" xmlns="http://www.w3.org/2000/svg" /></g>
  <g id="material-icon-menu-light"><path d="M164-278.62v-51.99h632v51.99H164ZM164-454v-52h632v52H164Zm0-175.39v-51.99h632v51.99H164Z" xmlns="http://www.w3.org/2000/svg" /></g>
  <g id="material-icon-notifications"><path d="M160-200v-80h80v-280q0-83 50-147.5T420-792v-28q0-25 17.5-42.5T480-880q25 0 42.5 17.5T540-820v28q80 20 130 84.5T720-560v280h80v80H160Zm320-300Zm0 420q-33 0-56.5-23.5T400-160h160q0 33-23.5 56.5T480-80ZM320-280h320v-280q0-66-47-113t-113-47q-66 0-113 47t-47 113v280Z" xmlns="http://www.w3.org/2000/svg" /></g>
  <g id="material-icon-notifications-light"><path d="M212-220.62v-51.99h40.31v-258.47q0-84.69 53.31-148.19 53.3-63.5 136.38-76.81V-806q0-15.83 11.07-26.92Q464.14-844 479.95-844q15.82 0 26.93 11.08Q518-821.83 518-806v49.92q83.08 13.31 136.38 76.81 53.31 63.5 53.31 148.19v258.47H748v51.99H212Zm268-269.07Zm-.28 381.38q-26.64 0-45.33-18.89-18.7-18.89-18.7-45.42h128.62q0 26.93-18.98 45.62-18.97 18.69-45.61 18.69Zm-175.41-164.3h351.38v-258.47q0-73.46-51.11-124.57-51.12-51.12-124.58-51.12-73.46 0-124.58 51.12-51.11 51.11-51.11 124.57v258.47Z" xmlns="http://www.w3.org/2000/svg" /></g>
  <g id="material-icon-notifications_off"><path d="M160-200v-80h80v-280q0-33 8.5-65t25.5-61l60 60q-7 16-10.5 32.5T320-560v280h248L56-792l56-56 736 736-56 56-146-144H160Zm560-154-80-80v-126q0-66-47-113t-113-47q-26 0-50 8t-44 24l-58-58q20-16 43-28t49-18v-28q0-25 17.5-42.5T480-880q25 0 42.5 17.5T540-820v28q80 20 130 84.5T720-560v206Zm-276-50Zm36 324q-33 0-56.5-23.5T400-160h160q0 33-23.5 56.5T480-80Zm33-481Z" xmlns="http://www.w3.org/2000/svg" /></g>
  <g id="material-icon-notifications_off-light"><path d="M212-220.62v-51.99h40.31v-258.47q0-36 11.77-69.13 11.77-33.13 31.31-62.17L333.77-624q-14.23 20.25-21.85 44.23-7.61 23.99-7.61 48.69v258.47h307.08l-496-494.47 37.15-38.15 655.69 656.69-37.15 37.15-108.46-109.23H212Zm495.69-131.23-52-51.99v-127.24q0-73.46-51.11-124.57-51.12-51.12-124.58-51.12-26.49 0-50.94 7.73t-46.37 22.19l-37.38-37.89q21.15-16.8 45.77-26.76 24.61-9.96 50.92-14.58V-806q0-15.83 11.07-26.92Q464.14-844 479.95-844q15.82 0 26.93 11.08Q518-821.83 518-806v49.92q83.46 12.54 136.58 76.23 53.11 63.7 53.11 148.77v179.23Zm-249.84-73.92Zm21.87 317.46q-26.64 0-45.33-18.89-18.7-18.89-18.7-45.42h128.62q0 26.93-18.98 45.62-18.97 18.69-45.61 18.69Zm39.97-432.54Z" xmlns="http://www.w3.org/2000/svg" /></g>
  <g id="material-icon-open_in_new"><path d="M200-120q-33 0-56.5-23.5T120-200v-560q0-33 23.5-56.5T200-840h280v80H200v560h560v-280h80v280q0 33-23.5 56.5T760-120H200Zm188-212-56-56 372-372H560v-80h280v280h-80v-144L388-332Z" xmlns="http://www.w3.org/2000/svg" /></g>
  <g id="material-icon-open_in_new-light"><path d="M228.31-164q-27.01 0-45.66-18.65Q164-201.3 164-228.31v-503.38q0-27.01 18.65-45.66Q201.3-796 228.31-796h236.3v52h-236.3q-4.62 0-8.46 3.85-3.85 3.84-3.85 8.46v503.38q0 4.62 3.85 8.46 3.84 3.85 8.46 3.85h503.38q4.62 0 8.46-3.85 3.85-3.84 3.85-8.46v-236.3h52v236.3q0 27.01-18.65 45.66Q758.7-164 731.69-164H228.31Zm159.46-186.62-37.15-37.15L706.85-744H576v-52h220v220h-52v-130.85L387.77-350.62Z" xmlns="http://www.w3.org/2000/svg" /></g>
  <g id="material-icon-password"><path d="M80-200v-80h800v80H80Zm46-242-52-30 34-60H40v-60h68l-34-58 52-30 34 58 34-58 52 30-34 58h68v60h-68l34 60-52 30-34-60-34 60Zm320 0-52-30 34-60h-68v-60h68l-34-58 52-30 34 58 34-58 52 30-34 58h68v60h-68l34 60-52 30-34-60-34 60Zm320 0-52-30 34-60h-68v-60h68l-34-58 52-30 34 58 34-58 52 30-34 58h68v60h-68l34 60-52 30-34-60-34 60Z" xmlns="http://www.w3.org/2000/svg" /></g>
  <g id="material-icon-password-light"><path d="M106-250v-52h748v52H106Zm30.69-234.46-51.23-29.85 31.31-53.84H54.15v-59.7h62.62l-31.31-53.84 51.23-29.85L168-657.69l31.31-53.85 51.23 29.85-31.31 53.84h62.62v59.7h-62.62l31.31 53.84-51.23 29.85L168-538.31l-31.31 53.85Zm312 0-51.23-29.85 31.31-53.84h-62.62v-59.7h62.62l-31.31-53.84 51.23-29.85L480-657.69l31.31-53.85 51.23 29.85-31.31 53.84h62.62v59.7h-62.62l31.31 53.84-51.23 29.85L480-538.31l-31.31 53.85Zm312 0-51.23-29.85 31.31-53.84h-62.62v-59.7h62.62l-31.31-53.84 51.23-29.85L792-657.69l31.31-53.85 51.23 29.85-31.31 53.84h62.62v59.7h-62.62l31.31 53.84-51.23 29.85L792-538.31l-31.31 53.85Z" xmlns="http://www.w3.org/2000/svg" /></g>
  <g id="material-icon-pending_actions"><path d="M680-80q-83 0-141.5-58.5T480-280q0-83 58.5-141.5T680-480q83 0 141.5 58.5T880-280q0 83-58.5 141.5T680-80Zm67-105 28-28-75-75v-112h-40v128l87 87Zm-547 65q-33 0-56.5-23.5T120-200v-560q0-33 23.5-56.5T200-840h167q11-35 43-57.5t70-22.5q40 0 71.5 22.5T594-840h166q33 0 56.5 23.5T840-760v250q-18-13-38-22t-42-16v-212h-80v120H280v-120h-80v560h212q7 22 16 42t22 38H200Zm280-640q17 0 28.5-11.5T520-800q0-17-11.5-28.5T480-840q-17 0-28.5 11.5T440-800q0 17 11.5 28.5T480-760Z" xmlns="http://www.w3.org/2000/svg" /></g>
  <g id="material-icon-pending_actions-light"><path d="M679.47-116q-71.7 0-121.74-50.27-50.04-50.26-50.04-121.96 0-71.69 50.27-121.73Q608.22-460 679.92-460q71.7 0 121.73 50.27 50.04 50.26 50.04 121.96 0 71.69-50.26 121.73Q751.16-116 679.47-116Zm54.84-86.46 30.92-30.92-63.84-63.85v-84.46H658v102.92l76.31 76.31Zm-506 38.46q-26.62 0-45.47-18.84Q164-201.69 164-228.31v-503.38q0-26.62 18.84-45.47Q201.69-796 228.31-796h180.23q5.31-25.23 24.46-42.46 19.15-17.23 47-17.23 27.08 0 46.42 17.23 19.35 17.23 24.66 42.46h180.61q26.62 0 45.47 18.84Q796-758.31 796-731.69v230.38q-13.16-7.15-25.27-13.15-12.12-6-26.73-9.08v-208.15q0-4.62-3.85-8.46-3.84-3.85-8.46-3.85H652v104.61H308V-744h-79.69q-4.62 0-8.46 3.85-3.85 3.84-3.85 8.46v503.38q0 5.39 3.46 8.85t8.85 3.46h218.86q4.76 15.61 9.45 27.42 4.69 11.81 13.61 24.58H228.31Zm251.48-575.38q13.67 0 23.02-9.14 9.34-9.14 9.34-22.81 0-13.67-9.13-23.02-9.14-9.34-22.81-9.34-13.67 0-23.02 9.13-9.34 9.14-9.34 22.81 0 13.67 9.13 23.02 9.14 9.35 22.81 9.35Z" xmlns="http://www.w3.org/2000/svg" /></g>
  <g id="material-icon-person"><path d="M480-480q-66 0-113-47t-47-113q0-66 47-113t113-47q66 0 113 47t47 113q0 66-47 113t-113 47ZM160-160v-112q0-34 17.5-62.5T224-378q62-31 126-46.5T480-440q66 0 130 15.5T736-378q29 15 46.5 43.5T800-272v112H160Zm80-80h480v-32q0-11-5.5-20T700-306q-54-27-109-40.5T480-360q-56 0-111 13.5T260-306q-9 5-14.5 14t-5.5 20v32Zm240-320q33 0 56.5-23.5T560-640q0-33-23.5-56.5T480-720q-33 0-56.5 23.5T400-640q0 33 23.5 56.5T480-560Zm0-80Zm0 400Z" xmlns="http://www.w3.org/2000/svg" /></g>
  <g id="material-icon-person-light"><path d="M480-492.31q-51.75 0-87.87-36.12Q356-564.56 356-616.31q0-51.75 36.13-87.87 36.12-36.13 87.87-36.13 51.75 0 87.87 36.13Q604-668.06 604-616.31q0 51.75-36.13 87.88-36.12 36.12-87.87 36.12ZM212-219.69v-72.93q0-18.38 10.96-35.42 10.96-17.04 30.66-29.5 52.3-30.07 109.94-46.11t116.23-16.04q58.59 0 116.44 16.04 57.85 16.04 110.15 46.11 19.7 11.46 30.66 29T748-292.62v72.93H212Zm52-52h432v-20.93q0-6.33-4.56-11.91-4.57-5.58-12.59-9.47-43.7-26.46-94.42-40.08Q533.7-367.69 480-367.69q-53.7 0-104.43 13.61-50.72 13.62-94.42 40.08-8.07 5.54-12.61 10.61-4.54 5.07-4.54 10.77v20.93Zm216.21-272.62q29.79 0 50.79-21.21t21-51q0-29.79-21.21-50.79t-51-21q-29.79 0-50.79 21.22-21 21.21-21 51 0 29.78 21.21 50.78t51 21Zm-.21-72Zm0 344.62Z" xmlns="http://www.w3.org/2000/svg" /></g>
  <g id="material-icon-person_add"><path d="M720-400v-120H600v-80h120v-120h80v120h120v80H800v120h-80Zm-360-80q-66 0-113-47t-47-113q0-66 47-113t113-47q66 0 113 47t47 113q0 66-47 113t-113 47ZM40-160v-112q0-34 17.5-62.5T104-378q62-31 126-46.5T360-440q66 0 130 15.5T616-378q29 15 46.5 43.5T680-272v112H40Zm80-80h480v-32q0-11-5.5-20T580-306q-54-27-109-40.5T360-360q-56 0-111 13.5T140-306q-9 5-14.5 14t-5.5 20v32Zm240-320q33 0 56.5-23.5T440-640q0-33-23.5-56.5T360-720q-33 0-56.5 23.5T280-640q0 33 23.5 56.5T360-560Zm0-80Zm0 400Z" xmlns="http://www.w3.org/2000/svg" /></g>
  <g id="material-icon-person_add-light"><path d="M713-442v-84h-84v-52h84v-84h52v84h84v52h-84v84h-52Zm-329-50.31q-51.75 0-87.87-36.12Q260-564.56 260-616.31q0-51.75 36.13-87.87 36.12-36.13 87.87-36.13 51.75 0 87.87 36.13Q508-668.06 508-616.31q0 51.75-36.13 87.88-36.12 36.12-87.87 36.12ZM116-219.69v-68.93q0-21.16 10.96-39.31 10.96-18.15 30.66-29.61 52.3-30.07 109.65-46.11 57.35-16.04 116.73-16.04t116.73 16.04q57.35 16.04 109.65 46.11 19.7 11.46 30.66 29.61T652-288.62v68.93H116Zm52-52h432v-16.93q0-7.62-4.56-14.26-4.57-6.64-12.59-11.12-44.7-25.46-95.42-39.58Q436.7-367.69 384-367.69q-52.7 0-103.43 14.11-50.72 14.12-95.42 39.58-8.02 4.48-12.59 11.12-4.56 6.64-4.56 14.26v16.93Zm216.21-272.62q29.79 0 50.79-21.21t21-51q0-29.79-21.21-50.79t-51-21q-29.79 0-50.79 21.22-21 21.21-21 51 0 29.78 21.21 50.78t51 21Zm-.21-73Zm0 345.62Z" xmlns="http://www.w3.org/2000/svg" /></g>
  <g id="material-icon-photo_filter" transform="matrix(40 0 0 40 0 -960)"><path d="M5 21q-.825 0-1.413-.587Q3 19.825 3 19V5q0-.825.587-1.413Q4.175 3 5 3h9v2H5v14h14v-9h2v9q0 .825-.587 1.413Q19.825 21 19 21Zm7-5-1.25-2.75L8 12l2.75-1.25L12 8l1.25 2.75L16 12l-2.75 1.25Zm5-6-.95-2.05L14 7l2.05-.95L17 4l.95 2.05L20 7l-2.05.95Z" xmlns="http://www.w3.org/2000/svg" /></g>
  <g id="material-icon-photo_filter-light" transform="matrix(40 0 0 40 0 -960)"><path d="M4.75 16.583q-.562 0-.948-.385-.385-.386-.385-.948V4.75q0-.562.385-.948.386-.385.948-.385h7.625V4.5H4.75q-.083 0-.167.083-.083.084-.083.167v10.5q0 .083.083.167.084.083.167.083h10.5q.083 0 .167-.083.083-.084.083-.167V7.625h1.083v7.625q0 .562-.385.948-.386.385-.948.385ZM10 12.688l-.833-1.855L7.312 10l1.855-.833L10 7.312l.833 1.855 1.855.833-1.855.833Zm4.062-4.771-.624-1.334-1.355-.645 1.355-.626.624-1.354.626 1.354 1.354.626-1.354.645Z" xmlns="http://www.w3.org/2000/svg" /></g>
  <g id="material-icon-pin"><path d="M160-160q-33 0-56.5-23.5T80-240v-480q0-33 23.5-56.5T160-800h640q33 0 56.5 23.5T880-720v480q0 33-23.5 56.5T800-160H160Zm100-200h46v-240h-36l-70 50 24 36 36-26v180Zm124 0h156v-40h-94l-2-2q21-20 34.5-34t21.5-22q18-18 27-36t9-38q0-29-22-48.5T458-600q-26 0-47 15t-29 39l40 16q5-13 14.5-20.5T458-558q15 0 24.5 8t9.5 20q0 11-4 20.5T470-486l-32 32-54 54v40Zm296 0q36 0 58-20t22-52q0-18-10-32t-28-22v-2q14-8 22-20.5t8-29.5q0-27-21-44.5T678-600q-25 0-46.5 14.5T604-550l40 16q4-12 13-19t21-7q13 0 21.5 7.5T708-534q0 14-10 22t-26 8h-18v40h20q20 0 31 8t11 22q0 13-11 22.5t-25 9.5q-17 0-26-7.5T638-436l-40 16q7 29 28.5 44.5T680-360ZM160-240h640v-480H160v480Zm0 0v-480 480Z" xmlns="http://www.w3.org/2000/svg" /></g>
  <g id="material-icon-pin-light"><path d="M172.31-180Q142-180 121-201q-21-21-21-51.31v-455.38Q100-738 121-759q21-21 51.31-21h615.38Q818-780 839-759q21 21 21 51.31v455.38Q860-222 839-201q-21 21-51.31 21H172.31Zm121.77-199.31h33.07v-201.38h-25.38l-58.69 41.46L260-513.62l34.08-23.53v157.84Zm106.23 0h128.38v-29.38h-84.08l.77-.77q10.47-10.08 23.04-23.16 12.58-13.07 27.04-29.92 11.23-13.61 19.96-28.54 8.73-14.92 8.73-33.92 0-25.23-16.84-40.46-16.85-15.23-47.31-15.23-20.08 0-36.31 11.84-16.23 11.85-24.61 30.31l30.38 12.46q3.39-11 12.46-17.5 9.08-6.5 20.08-6.5 12.15 0 21.23 7.08t9.08 20q0 11.77-5.89 20.77-5.88 9-13.88 17.77-23.62 24.77-40.16 41.42-16.53 16.66-32.07 31.81v31.92Zm250.69 0q26.08 0 45.62-15.92 19.53-15.92 19.53-43.77 0-16.92-10.07-29.23Q696-480.54 680.85-484q14.53-3.08 21.42-16.19 6.88-13.12 6.88-28.27 0-23-18.15-37.12-18.15-14.11-42-14.11-22.54 0-37.85 11-15.3 11-22.07 27.15l28.61 12.46q3.39-9.61 12.16-15.42 8.77-5.81 19.15-5.81 12.15 0 20.23 6.58t8.08 17.73q0 11.77-9.77 19.54T645-498.69h-13.69v29.38H647q15.15 0 26.23 7.58T684.31-440q0 13.15-10.08 21.62-10.08 8.46-23.23 8.46-13 0-22.46-9t-14.85-20.23l-29.61 11.69q6.77 20.69 26 34.42T651-379.31ZM172.31-240h615.38q5.39 0 8.85-3.46t3.46-8.85v-455.38q0-5.39-3.46-8.85t-8.85-3.46H172.31q-5.39 0-8.85 3.46t-3.46 8.85v455.38q0 5.39 3.46 8.85t8.85 3.46ZM160-240v-480 480Z" xmlns="http://www.w3.org/2000/svg" /></g>
  <g id="material-icon-playlist_play"><path d="M120-320v-80h320v80H120Zm0-160v-80h480v80H120Zm0-160v-80h480v80H120Zm520 520v-320l240 160-240 160Z" xmlns="http://www.w3.org/2000/svg" /></g>
  <g id="material-icon-playlist_play-light"><path d="M164-400.62v-51.99h268.38v51.99H164Zm0-150v-51.99h411.23v51.99H164Zm0-150v-51.99h411.23v51.99H164ZM632.85-212v-270.84l211.53 135.61L632.85-212Z" xmlns="http://www.w3.org/2000/svg" /></g>
  <g id="material-icon-queue"><path d="M120-320v-80h280v80H120Zm0-160v-80h440v80H120Zm0-160v-80h440v80H120Zm520 480v-160H480v-80h160v-160h80v160h160v80H720v160h-80Z" /></g>
  <g id="material-icon-queue-light"><path d="M154-406v-52h288v52H154Zm0-150v-52h432v52H154Zm0-150v-52h432v52H154Zm492 456v-156H490v-52h156v-156h52v156h156v52H698v156h-52Z" /></g>
  <g id="material-icon-replay"><path d="M480-80q-75 0-140.5-28.5t-114-77q-48.5-48.5-77-114T120-440h80q0 117 81.5 198.5T480-160q117 0 198.5-81.5T760-440q0-117-81.5-198.5T480-720h-6l62 62-56 58-160-160 160-160 56 58-62 62h6q75 0 140.5 28.5t114 77q48.5 48.5 77 114T840-440q0 75-28.5 140.5t-77 114q-48.5 48.5-114 77T480-80Z" xmlns="http://www.w3.org/2000/svg" /></g>
  <g id="material-icon-replay-light"><path d="M480-110q-65.77 0-123.25-24.87-57.48-24.87-100.24-67.64-42.77-42.76-67.64-100.24Q164-360.23 164-426h52q0 109 77.5 186.5T480-162q109 0 186.5-77.5T744-426q0-109-77.5-186.5T479.61-690h-10.23l52.54 52.54-37.15 36.38-114.92-115.3 115.69-115.31 37.15 36.38L468.38-742H480q65.77 0 123.25 24.87 57.48 24.87 100.24 67.64 42.77 42.76 67.64 100.24Q796-491.77 796-426q0 65.77-24.87 123.25-24.87 57.48-67.64 100.24-42.76 42.77-100.24 67.64Q545.77-110 480-110Z" xmlns="http://www.w3.org/2000/svg" /></g>
  <g id="material-icon-save"><path d="M840-680v480q0 33-23.5 56.5T760-120H200q-33 0-56.5-23.5T120-200v-560q0-33 23.5-56.5T200-840h480l160 160Zm-80 34L646-760H200v560h560v-446ZM480-240q50 0 85-35t35-85q0-50-35-85t-85-35q-50 0-85 35t-35 85q0 50 35 85t85 35ZM240-560h360v-160H240v160Zm-40-86v446-560 114Z" xmlns="http://www.w3.org/2000/svg" /></g>
  <g id="material-icon-save-light"><path d="M796-663.54v435.23q0 27.01-18.65 45.66Q758.7-164 731.69-164H228.31q-27.01 0-45.66-18.65Q164-201.3 164-228.31v-503.38q0-27.01 18.65-45.66Q201.3-796 228.31-796h435.23L796-663.54ZM744-642 642-744H228.31q-5.39 0-8.85 3.46t-3.46 8.85v503.38q0 5.39 3.46 8.85t8.85 3.46h503.38q5.39 0 8.85-3.46t3.46-8.85V-642ZM480-281.23q36.54 0 62.27-25.73Q568-332.69 568-369.23q0-36.54-25.73-62.27-25.73-25.73-62.27-25.73-36.54 0-62.27 25.73Q392-405.77 392-369.23q0 36.54 25.73 62.27 25.73 25.73 62.27 25.73ZM279.39-556.62h304.45v-123.99H279.39v123.99ZM216-629v413-528 115Z" xmlns="http://www.w3.org/2000/svg" /></g>
  <g id="material-icon-schedule"><path d="m612-292 56-56-148-148v-184h-80v216l172 172ZM480-80q-83 0-156-31.5T197-197q-54-54-85.5-127T80-480q0-83 31.5-156T197-763q54-54 127-85.5T480-880q83 0 156 31.5T763-763q54 54 85.5 127T880-480q0 83-31.5 156T763-197q-54 54-127 85.5T480-80Zm0-400Zm0 320q133 0 226.5-93.5T800-480q0-133-93.5-226.5T480-800q-133 0-226.5 93.5T160-480q0 133 93.5 226.5T480-160Z" xmlns="http://www.w3.org/2000/svg" /></g>
  <g id="material-icon-schedule-light"><path d="m620.92-316.92 37.16-37.16L506-506.16V-720h-52v236.15l166.92 166.93ZM480.07-116q-75.21 0-141.4-28.42-66.18-28.42-115.99-78.21-49.81-49.79-78.25-116.09Q116-405.01 116-480.39q0-75.38 28.42-141.75t78.21-115.68q49.79-49.31 116.09-77.75Q405.01-844 480.39-844q75.38 0 141.75 28.66 66.38 28.66 115.48 77.79 49.1 49.13 77.74 115.55Q844-555.58 844-480.07q0 75.21-28.42 141.4-28.42 66.18-77.71 115.99-49.29 49.81-115.76 78.25Q555.64-116 480.07-116ZM480-480Zm.48 312q129.47 0 220.5-91.5Q792-351 792-480.48q0-129.47-91.02-220.5Q609.95-792 480.48-792 351-792 259.5-700.98 168-609.95 168-480.48 168-351 259.5-259.5T480.48-168Z" xmlns="http://www.w3.org/2000/svg" /></g>
  <g id="material-icon-search"><path d="M784-120 532-372q-30 24-69 38t-83 14q-109 0-184.5-75.5T120-580q0-109 75.5-184.5T380-840q109 0 184.5 75.5T640-580q0 44-14 83t-38 69l252 252-56 56ZM380-400q75 0 127.5-52.5T560-580q0-75-52.5-127.5T380-760q-75 0-127.5 52.5T200-580q0 75 52.5 127.5T380-400Z" xmlns="http://www.w3.org/2000/svg" /></g>
  <g id="material-icon-search-light"><path d="M762.69-160.92 524.46-399.16q-30 22.77-65.79 35.27-35.79 12.5-73.87 12.5-93.58 0-159.11-65.51-65.53-65.51-65.53-159.04 0-93.52 65.51-159.1 65.51-65.57 159.04-65.57 93.52 0 159.1 65.53 65.57 65.53 65.57 159.11 0 39.23-12.88 75.02-12.89 35.8-34.89 64.64l238.23 238.23-37.15 37.16ZM384.77-403.38q72.31 0 122.46-50.16 50.16-50.15 50.16-122.46t-50.16-122.46q-50.15-50.16-122.46-50.16t-122.46 50.16Q212.15-648.31 212.15-576t50.16 122.46q50.15 50.16 122.46 50.16Z" xmlns="http://www.w3.org/2000/svg" /></g>
  <g id="material-icon-search_off"><path d="M280-80q-83 0-141.5-58.5T80-280q0-83 58.5-141.5T280-480q83 0 141.5 58.5T480-280q0 83-58.5 141.5T280-80Zm544-40L568-376q-12-13-25.5-26.5T516-428q38-24 61-64t23-88q0-75-52.5-127.5T420-760q-75 0-127.5 52.5T240-580q0 6 .5 11.5T242-557q-18 2-39.5 8T164-535q-2-11-3-22t-1-23q0-109 75.5-184.5T420-840q109 0 184.5 75.5T680-580q0 43-13.5 81.5T629-428l251 252-56 56Zm-615-61 71-71 70 71 29-28-71-71 71-71-28-28-71 71-71-71-28 28 71 71-71 71 28 28Z" xmlns="http://www.w3.org/2000/svg" /></g>
  <g id="material-icon-search_off-light"><path d="M287.77-171.69q-71.69 0-121.73-50.27Q116-272.22 116-343.92q0-71.7 50.27-121.73 50.26-50.04 121.96-50.04 71.69 0 121.73 50.26Q460-415.16 460-343.47q0 71.7-50.27 121.74-50.26 50.04-121.96 50.04Zm522.15-37.23-243.69-243.7q-5.38 4.62-12.88 8.85-7.51 4.23-14.04 6.54-7.16-8.69-14.43-17.5t-14.42-17.12q41.15-21.46 67.66-60.84 26.5-39.39 26.5-91.15 0-71.99-50.35-122.38-50.35-50.4-122.27-50.4-71.92 0-122.27 50.35-50.35 50.35-50.35 122.27 0 9.78 1.77 19.39 1.77 9.61 3.54 18.3-14.38 1.23-26.5 3.89-12.11 2.65-24.88 6.34-2.77-10.84-4.35-23.02-1.57-12.19-1.57-25.1 0-93.26 65.57-158.84 65.58-65.57 159.04-65.57t159.04 65.34q65.57 65.35 65.57 159.53 0 39.74-13.21 75.58-13.21 35.83-34.94 63.85l238.62 238.23-37.16 37.16Zm-578.54-54.23L287-318.77l56 55.62 25.54-25.93-55.62-55.61 55.62-55.62-25.92-25.92L287-370.62l-55.62-55.61-25.92 25.92 55.62 55.62-55.62 55.61 25.92 25.93Z" xmlns="http://www.w3.org/2000/svg" /></g>
  <g id="material-icon-sell"><path d="M856-390 570-104q-12 12-27 18t-30 6q-15 0-30-6t-27-18L103-457q-11-11-17-25.5T80-513v-287q0-33 23.5-56.5T160-880h287q16 0 31 6.5t26 17.5l352 353q12 12 17.5 27t5.5 30q0 15-5.5 29.5T856-390ZM513-160l286-286-353-354H160v286l353 354ZM260-640q25 0 42.5-17.5T320-700q0-25-17.5-42.5T260-760q-25 0-42.5 17.5T200-700q0 25 17.5 42.5T260-640Zm220 160Z" xmlns="http://www.w3.org/2000/svg" /></g>
  <g id="material-icon-sell-light"><path d="M825.31-400.92 560.08-134.69q-9.9 9.84-21.53 14.27-11.63 4.42-24.18 4.42-12.56 0-24.12-4.42-11.56-4.43-21.4-14.27L134.78-468.38q-9.93-9.54-14.36-21.19-4.42-11.65-4.42-24.51v-265.23q0-26.68 18.84-45.69 18.85-19 45.85-19h265.23q12.4 0 24.03 4.38 11.63 4.37 21.32 14.01l334.04 333.69q9.99 9.9 14.53 21.02 4.54 11.13 4.54 23.83 0 12.7-4.56 24.53-4.56 11.83-14.51 21.62Zm-302 229.07 265.23-265.23q3.84-3.84 3.84-9.04 0-5.19-3.84-9.03L451.31-791.62H180.69q-5.38 0-9.04 3.47-3.65 3.46-3.65 8.84v265.62q0 2.31.77 4.61.77 2.31 2.69 4.23l333.77 333q3.85 3.85 9.04 3.85 5.19 0 9.04-3.85ZM265-644.85q20.92 0 35.54-14.58 14.61-14.58 14.61-35.42 0-20.99-14.58-35.68-14.58-14.7-35.42-14.7-20.99 0-35.68 14.65-14.7 14.65-14.7 35.58 0 20.92 14.65 35.54 14.65 14.61 35.58 14.61Zm215.77 165.62Z" xmlns="http://www.w3.org/2000/svg" /></g>
  <g id="material-icon-upload_file"><path d="M440-200h80v-167l64 64 56-57-160-160-160 160 57 56 63-63v167ZM240-80q-33 0-56.5-23.5T160-160v-640q0-33 23.5-56.5T240-880h320l240 240v480q0 33-23.5 56.5T720-80H240Zm280-520v-200H240v640h480v-440H520ZM240-800v200-200 640-640Z" xmlns="http://www.w3.org/2000/svg" /></g>
  <g id="material-icon-upload_file-light"><path d="M454-264.62h52V-425l67 67 37.15-36.77L480-524.92 349.85-394.77l36.77 37.15L454-425v160.38ZM276.03-116q-27.03 0-45.53-18.65T212-180.31v-599.38q0-27.01 18.65-45.66Q249.3-844 276.31-844H586l162 162v501.69q0 27.01-18.66 45.66Q710.68-116 683.65-116H276.03ZM548-644v-148H276.31q-4.62 0-8.46 3.85-3.85 3.84-3.85 8.46v599.38q0 4.62 3.85 8.46 3.84 3.85 8.46 3.85h407.38q4.62 0 8.46-3.85 3.85-3.84 3.85-8.46V-644H548ZM264-792v169-169V-168v-624Z" xmlns="http://www.w3.org/2000/svg" /></g>
  <g id="material-icon-verified_user"><path d="m438-338 226-226-57-57-169 169-84-84-57 57 141 141Zm42 258q-139-35-229.5-159.5T160-516v-244l320-120 320 120v244q0 152-90.5 276.5T480-80Zm0-84q104-33 172-132t68-220v-189l-240-90-240 90v189q0 121 68 220t172 132Zm0-316Z" xmlns="http://www.w3.org/2000/svg" /></g>
  <g id="material-icon-verified_user-light"><path d="M438-352.85 644.15-560l-36.77-36.77L438-426.38l-85.77-85.77-36.77 36.77L438-352.85Zm42 236.08q-125.77-33.39-208.88-146.11Q188-375.61 188-515v-215.15l292-112.31 292 112.31V-515q0 139.39-83.12 252.12Q605.77-150.16 480-116.77Zm0-54.23q104-32.25 172-129t68-215v-180l-240-91.62L240-695v180q0 118.25 68 215t172 129Zm0-307.62Z" xmlns="http://www.w3.org/2000/svg" /></g>
  <g id="material-icon-view_list"><path d="M360-240h440v-107H360v107ZM160-613h120v-107H160v107Zm0 187h120v-107H160v107Zm0 186h120v-107H160v107Zm200-186h440v-107H360v107Zm0-187h440v-107H360v107ZM160-160q-33 0-56.5-23.5T80-240v-480q0-33 23.5-56.5T160-800h640q33 0 56.5 23.5T880-720v480q0 33-23.5 56.5T800-160H160Z" xmlns="http://www.w3.org/2000/svg" /></g>
  <g id="material-icon-view_list-light"><path d="M326-264h453.69q4.62 0 8.46-3.85 3.85-3.84 3.85-8.46V-370H326v106ZM168-590h106v-106h-93.69q-4.62 0-8.46 3.85-3.85 3.84-3.85 8.46V-590Zm0 168h106v-116H168v116Zm12.31 158H274v-106H168v93.69q0 4.62 3.85 8.46 3.84 3.85 8.46 3.85ZM326-422h466v-116H326v116Zm0-168h466v-93.69q0-4.62-3.85-8.46-3.84-3.85-8.46-3.85H326v106ZM180.31-212q-27.01 0-45.66-18.66Q116-249.32 116-276.35v-407.62q0-27.03 18.65-45.53t45.66-18.5h599.38q27.01 0 45.66 18.66Q844-710.68 844-683.65v407.62q0 27.03-18.65 45.53T779.69-212H180.31Z" xmlns="http://www.w3.org/2000/svg" /></g>
  <g id="material-icon-visibility"><path d="M480-320q75 0 127.5-52.5T660-500q0-75-52.5-127.5T480-680q-75 0-127.5 52.5T300-500q0 75 52.5 127.5T480-320Zm0-72q-45 0-76.5-31.5T372-500q0-45 31.5-76.5T480-608q45 0 76.5 31.5T588-500q0 45-31.5 76.5T480-392Zm0 192q-146 0-266-81.5T40-500q54-137 174-218.5T480-800q146 0 266 81.5T920-500q-54 137-174 218.5T480-200Zm0-300Zm0 220q113 0 207.5-59.5T832-500q-50-101-144.5-160.5T480-720q-113 0-207.5 59.5T128-500q50 101 144.5 160.5T480-280Z" xmlns="http://www.w3.org/2000/svg" /></g>
  <g id="material-icon-visibility-light"><path d="M480.09-328.92q62.99 0 106.99-44.09 44-44.09 44-107.08 0-62.99-44.09-106.99-44.09-44-107.08-44-62.99 0-106.99 44.09-44 44.09-44 107.08 0 62.99 44.09 106.99 44.09 44 107.08 44ZM480-384q-40 0-68-28t-28-68q0-40 28-68t68-28q40 0 68 28t28 68q0 40-28 68t-68 28Zm.05 172q-134.57 0-245.23-73.12Q124.16-358.23 69.54-480q54.62-121.77 165.22-194.88Q345.37-748 479.95-748q134.57 0 245.23 73.12Q835.84-601.77 890.46-480q-54.62 121.77-165.22 194.88Q614.63-212 480.05-212ZM480-480Zm0 216q112 0 207-58t146-158q-51-100-146-158t-207-58q-112 0-207 58T127-480q51 100 146 158t207 58Z" xmlns="http://www.w3.org/2000/svg" /></g>
  <g id="material-icon-warning"><path d="m40-120 440-760 440 760H40Zm138-80h604L480-720 178-200Zm302-40q17 0 28.5-11.5T520-280q0-17-11.5-28.5T480-320q-17 0-28.5 11.5T440-280q0 17 11.5 28.5T480-240Zm-40-120h80v-200h-80v200Zm40-100Z" xmlns="http://www.w3.org/2000/svg" /></g>
  <g id="material-icon-warning-light"><path d="M82.62-164 480-824l397.38 660H82.62ZM175-216h610L480-724 175-216Zm304.79-55.69q11.94 0 20.23-8.08 8.29-8.08 8.29-20.02t-8.08-20.23q-8.08-8.29-20.02-8.29t-20.23 8.08q-8.29 8.08-8.29 20.02t8.08 20.23q8.08 8.29 20.02 8.29ZM454-376.31h52v-192h-52v192ZM480-470Z" xmlns="http://www.w3.org/2000/svg" /></g>
  <g id="material-icon-widgets"><path d="M666-440 440-666l226-226 226 226-226 226Zm-546-80v-320h320v320H120Zm400 400v-320h320v320H520Zm-400 0v-320h320v320H120Zm80-480h160v-160H200v160Zm467 48 113-113-113-113-113 113 113 113Zm-67 352h160v-160H600v160Zm-400 0h160v-160H200v160Zm160-400Zm194-65ZM360-360Zm240 0Z" xmlns="http://www.w3.org/2000/svg" /></g>
  <g id="material-icon-widgets-light"><path d="M629.08-452.77 453.54-628.31l175.54-175.53 174.53 175.53-174.53 175.54Zm-452.77-82.92v-248h248v248h-248Zm359.38 359.38v-248h248v248h-248Zm-359.38 0v-248h248v248h-248Zm52-411.38h144v-144h-144v144Zm400.77 61.38 101-102-101-102-102 102 102 102Zm-41.39 298h144v-144h-144v144Zm-359.38 0h144v-144h-144v144Zm144-359.38Zm154.77-40.62Zm-154.77 256Zm215.38 0Z" xmlns="http://www.w3.org/2000/svg" /></g>
</svg>
